<?xml version="1.0" encoding="utf-8"?>
<!-- Generator: Adobe Illustrator 21.0.0, SVG Export Plug-In . SVG Version: 6.00 Build 0)  -->
<svg version="1.1" id="图层_1" xmlns="http://www.w3.org/2000/svg" xmlns:xlink="http://www.w3.org/1999/xlink" x="0px" y="0px"
	 viewBox="0 0 601 92" style="enable-background:new 0 0 601 92;" xml:space="preserve">
<style type="text/css">
	.st0{fill:url(#SVGID_1_);}
	.st1{fill:#FFFFFF;}
	.st2{fill:#004097;}
	.st3{fill:#CC0000;}
	.st4{font-family:'SimHei';}
	.st5{font-size:19.9606px;}
	.st6{fill:none;stroke:#000000;stroke-width:0.75;stroke-miterlimit:10;}
	.st7{fill:#0066cc;}
	.st8{font-family:'RTWSYueGoTrial-Regular-GBpc-EUC-H';}
	.st9{font-size:33.8303px;}
	.st10{fill:none;stroke:#0066cc;stroke-width:0.25;stroke-miterlimit:10;}
	.st11{fill:none;}
	.st12{font-size:22.655px;}
</style>
<linearGradient id="SVGID_1_" gradientUnits="userSpaceOnUse" x1="40.2" y1="69.2114" x2="40.2" y2="21.8114" gradientTransform="matrix(1 0 0 -1 0 92)">
	<stop  offset="0" style="stop-color:#0075C1"/>
	<stop  offset="1" style="stop-color:#FFFFFF"/>
</linearGradient>
<path class="st0" d="M40.2,70.3c13,0,23.7-10.6,23.7-23.7S53.2,22.9,40.2,22.9c-13.1,0-23.7,10.6-23.7,23.7S27.1,70.3,40.2,70.3z"/>
<polygon class="st1" points="21.6,61.1 58.7,61.1 55.7,64.1 23.8,64.1 "/>
<path class="st1" d="M39.9,50.7h2.8v1.8h-2.8h-2.8v-1.8H39.9L39.9,50.7z M39.9,52.7L39.9,52.7L39.9,52.7h2.8v0.6H40l0,0h-0.2l0,0
	h-2.7v-0.6H39.9L39.9,52.7L39.9,52.7z M39.7,50h0.4l0,0h2.6v0.6H40l0,0h-0.1l0,0h-2.8V50H39.7L39.7,50L39.7,50z M38.3,53.4
	c0,0-0.2,0.4-0.5,0.5s-0.2,0.1-0.3,0.2c0,0.1,0,0.2-0.1,0.3s-0.2,0.1-0.2,0.1v-1L38.3,53.4L38.3,53.4z M37.1,49.8c0,0,0.5,0,0.8-0.2
	c0.3-0.1,0.3-0.5,0.3-0.5c-0.1-0.2-0.1-0.3-0.2-0.4c-0.4-0.2-0.5,0.1-0.7,0.4c-0.1,0.1-0.1,0.1-0.1,0.1l0,0l0,0l0,0l0,0L37.1,49.8
	L37.1,49.8z M36.9,49.2h-1.6v11.7h1.6V49.2L36.9,49.2z M37.1,47.7h-1.9c-0.1,0-0.1,0-0.1,0.1v1.1c0,0.1,0,0.1,0.1,0.1h1.9
	c0.1,0,0.1,0,0.1-0.1L37.1,47.7L37.1,47.7L37.1,47.7z M36.1,45.8L36.1,45.8C36.2,45.8,36.2,45.8,36.1,45.8c0.3,0,0.4,0.3,0.5,0.4
	c0.1,0.2,0.1,0.4,0.1,0.4c0.3,0.1,0.4,0.4,0.2,0.7c-0.1,0.2,0,0.3-0.1,0.3h-0.6h-0.6c-0.2,0,0-0.1-0.1-0.3c-0.2-0.2,0-0.5,0.2-0.7
	c0,0,0-0.2,0.1-0.4C35.7,46.1,35.8,45.8,36.1,45.8L36.1,45.8z M35,49.2v0.6h-0.4c-0.3,0-0.3-0.4-0.4-0.5c0,0-0.3-0.3-0.4-0.4
	c0-0.2-0.1-0.1,0-0.3c0.1-0.1,0.2-0.1,0.3-0.1h0.1l0,0l0,0l0,0l0,0l-0.1,0.1c0,0.2,0.4,0.1,0.5,0.2c0.1,0,0.1,0.2,0.2,0.2
	C34.9,49.2,35,49.2,35,49.2L35,49.2z M35,50h-0.5v0.6H35V50L35,50z M35,50.7h-3.2v0.5H35V50.7L35,50.7z M35,51.3h-3.2v1.4H35V51.3
	L35,51.3z M35.1,52.9h-3.2v0.5h3.2V52.9L35.1,52.9z M32.8,53.6c0.1,0-0.2,0.4-0.5,0.5c-0.1,0-0.1,0.1-0.1,0.1c0,0.1-0.1,0.2-0.1,0.2
	c-0.1,0.1-0.2,0-0.2,0v-0.9h0.9V53.6z M31.6,50.5h-1.5v10.4h1.5V50.5L31.6,50.5z M31.7,49H30c0,0-0.1,0-0.1,0.1v1
	c0,0.1,0,0.1,0.1,0.1h1.7c0.1,0,0.1,0,0.1-0.1L31.7,49C31.8,49.1,31.8,49,31.7,49L31.7,49z M27.1,50.9h-1.4v9.9H27v-9.4h0.1V50.9
	L27.1,50.9z M27.2,49.9h-1.6c0,0-0.1,0-0.1,0.1v0.8c0,0,0,0.1,0.1,0.1h1.6c0,0,0.1,0,0.1-0.1L27.2,49.9L27.2,49.9L27.2,49.9z
	 M26.4,48.3c0,0,0.2,0,0.3,0.2c0,0,0.1,0.1,0.1,0.2c0.1,0.1,0.1,0.3,0.1,0.3c0.2,0.1,0.3,0.3,0.1,0.5c-0.1,0.1,0,0.2,0,0.2
	c0,0.1,0,0.1,0,0.1h-0.5l0,0l0,0H26c0,0,0,0,0-0.1s0.1-0.1,0-0.2c-0.3-0.3-0.2-0.5,0-0.5c0,0,0-0.2,0.1-0.3s0.1-0.2,0.1-0.2
	C26.2,48.3,26.3,48.3,26.4,48.3L26.4,48.3L26.4,48.3L26.4,48.3z M29.9,50.6h-0.3c-0.3,0-0.3-0.2-0.4-0.4s-0.3-0.3-0.3-0.5
	s0.2-0.3,0.3-0.3l0,0c0,0-0.1,0.1,0,0.2c0.1,0.2,0.4,0.2,0.5,0.4c0,0.1,0.1,0.2,0.1,0.3s0,0.1,0,0.1h0.1L29.9,50.6L29.9,50.6z
	 M29.9,50.7h-0.3v0.4h0.3V50.7L29.9,50.7z M29.9,51.2h-2.7v0.5h2.7V51.2L29.9,51.2z M34.1,53.6c-0.1,0,0.2,0.4,0.5,0.5
	c0.1,0,0.1,0.1,0.2,0.1c0,0.1,0.1,0.2,0.1,0.2c0.1,0.1,0.2,0,0.2,0v-0.9h-1V53.6z M30.8,47.4L30.8,47.4L30.8,47.4L30.8,47.4
	C30.9,47.4,30.9,47.4,30.8,47.4c0.3,0,0.4,0.3,0.4,0.4c0.1,0.1,0.1,0.3,0.1,0.3c0.2,0.1,0.4,0.5,0.2,0.6c-0.1,0.1,0,0.2-0.2,0.2
	h-0.5l0,0l0,0h-0.5c-0.2,0,0-0.1-0.2-0.2c-0.2-0.2,0-0.5,0.2-0.6c0,0,0-0.2,0.1-0.3C30.5,47.6,30.7,47.4,30.8,47.4L30.8,47.4z
	 M31.8,50.6h0.3c0.3,0,0.3-0.2,0.4-0.4c0.1-0.2,0.3-0.3,0.3-0.5s-0.2-0.3-0.3-0.3l0,0c0,0,0.1,0.1,0,0.2c-0.1,0.2-0.4,0.2-0.5,0.4
	c0,0.1-0.1,0.2-0.1,0.3s0,0.1,0,0.1h-0.1V50.6L31.8,50.6z M29.9,51.9h-2.7V53h2.7V51.9L29.9,51.9z M29.9,53.1h-2.7v0.5h2.7V53.1
	L29.9,53.1z M29.9,54.5c0-0.1-0.1-0.2-0.2-0.2c-0.2-0.1-0.5-0.3-0.6-0.5c0-0.1,0-0.1,0-0.1l0,0l0,0H30L29.9,54.5L29.9,54.5z
	 M27.2,54.5c0,0,0.1-0.2,0.2-0.2c0.2-0.1,0.5-0.3,0.6-0.5c0-0.1,0-0.1,0-0.1h-0.9L27.2,54.5L27.2,54.5z M27.2,50.9v0.2
	c0,0,0.2,0,0.3,0c0.1,0,0.3-0.1,0.4-0.2c0.1-0.1,0.1-0.1,0.1-0.2c0-0.1,0-0.1-0.1-0.2c-0.1-0.1,0-0.1-0.1-0.2
	c-0.1-0.1-0.2-0.2-0.4-0.1h-0.1v0.6L27.2,50.9L27.2,50.9z M25.5,51.2h-0.3c-0.2,0-0.3-0.2-0.4-0.4c-0.1-0.3-0.3-0.3-0.3-0.6
	c0-0.2,0.1-0.3,0.2-0.2l0,0c0,0,0,0.1,0,0.2c0.1,0.2,0.5,0.2,0.6,0.4c0,0.1,0.1,0.2,0.1,0.3s0,0.1,0,0.1h0.1L25.5,51.2L25.5,51.2z
	 M25.5,53.1h-0.4v0.5h0.4V53.1L25.5,53.1z M25.5,51.2h-0.4v0.5h0.4V51.2L25.5,51.2z M25.4,56.5c0,0-0.4,0.2-0.5,0.5
	c-0.1,0.2-0.1,0.3-0.1,0.3c-0.3,0.2-0.6,0.5-0.6,1c0,0.3,0.1,0.5,0.1,0.5s-0.3,0.3-0.4,0.5s0,0.9,0.1,0.9h1.4V56.5L25.4,56.5z
	 M25.4,60.4h-1.7v0.5h1.7V60.4L25.4,60.4z M41.6,53.4c0,0,0.2,0.4,0.5,0.5s0.2,0.1,0.3,0.2c0,0.1,0,0.2,0.1,0.3s0.2,0.1,0.2,0.1v-1
	L41.6,53.4L41.6,53.4z M42.7,49.8c0,0-0.5,0-0.8-0.2s-0.3-0.5-0.3-0.5c0.2-0.2,0.1-0.3,0.2-0.4c0.4-0.2,0.5,0.1,0.7,0.4
	c0.1,0.1,0.1,0.1,0.1,0.1l0,0l0,0l0,0l0,0L42.7,49.8L42.7,49.8z M43,49.2h1.6v11.7H43V49.2L43,49.2z M42.8,47.7h1.9
	c0.1,0,0.1,0,0.1,0.1v1.1c0,0.1,0,0.1-0.1,0.1h-1.9c-0.1,0-0.1,0-0.1-0.1L42.8,47.7C42.7,47.7,42.8,47.7,42.8,47.7L42.8,47.7z
	 M43.8,45.8L43.8,45.8C43.7,45.8,43.7,45.8,43.8,45.8c-0.3,0-0.4,0.3-0.5,0.4c-0.1,0.2-0.1,0.4-0.1,0.4C43,46.7,42.9,47,43,47.2
	s0,0.3,0.1,0.3h0.6h0.6c0.2,0,0-0.1,0.1-0.3c0.2-0.2,0-0.5-0.2-0.7c0,0,0-0.2-0.1-0.4C44.2,46.1,44,45.8,43.8,45.8L43.8,45.8z
	 M44.9,49.2v0.6h0.4c0.3,0,0.3-0.4,0.4-0.5c0,0,0.3-0.3,0.4-0.4c0-0.2,0.1-0.1,0-0.3c-0.1-0.1-0.2-0.1-0.3-0.1h-0.1l0,0l0,0l0,0l0,0
	l0.1,0.1c0,0.2-0.4,0.1-0.5,0.2c-0.1,0-0.1,0.2-0.2,0.2C45,49.2,44.9,49.2,44.9,49.2L44.9,49.2z M44.8,50h0.5v0.6h-0.5V50L44.8,50z
	 M44.8,50.7H48v0.5h-3.2V50.7L44.8,50.7z M44.8,51.3H48v1.4h-3.2V51.3L44.8,51.3z M44.8,52.9H48v0.5h-3.2V52.9L44.8,52.9z
	 M47.1,53.6c-0.1,0,0.2,0.4,0.5,0.5c0.1,0,0.1,0.1,0.1,0.1c0,0.1,0.1,0.2,0.1,0.2c0.1,0.1,0.2,0,0.2,0v-0.9h-0.9V53.6z M48.3,50.5
	h1.5v10.4h-1.5V50.5L48.3,50.5z M48.1,49h1.7c0,0,0.1,0,0.1,0.1v1c0,0.1,0,0.1-0.1,0.1h-1.7c-0.1,0-0.1,0-0.1-0.1L48.1,49
	C48.1,49.1,48.1,49,48.1,49L48.1,49z M52.8,50.9h1.4v9.9h-1.4v-9.4h-0.1L52.8,50.9L52.8,50.9z M52.7,49.9h1.6c0,0,0.1,0,0.1,0.1v0.8
	c0,0,0,0.1-0.1,0.1h-1.6c0,0-0.1,0-0.1-0.1L52.7,49.9C52.6,49.9,52.7,49.9,52.7,49.9L52.7,49.9z M53.5,48.3c0,0-0.2,0-0.3,0.2
	c0,0-0.1,0.1-0.1,0.2C53,48.8,53,49,53,49c-0.2,0.1-0.3,0.3-0.1,0.5c0.1,0.1,0,0.2,0,0.2c0,0.1,0,0.1,0,0.1h0.5l0,0l0,0H54
	c0,0,0,0,0-0.1s-0.1-0.1,0-0.2c0.2-0.2,0.1-0.4-0.1-0.5c0,0,0-0.2-0.1-0.3s-0.1-0.2-0.1-0.2C53.7,48.3,53.5,48.3,53.5,48.3
	L53.5,48.3L53.5,48.3L53.5,48.3z M50,50.6h0.3c0.3,0,0.3-0.2,0.4-0.4c0.1-0.2,0.3-0.3,0.3-0.5s-0.2-0.3-0.3-0.3l0,0
	c0,0,0.1,0.1,0,0.2c-0.1,0.2-0.4,0.2-0.5,0.4c0,0.1-0.1,0.2-0.1,0.3s0,0.1,0,0.1H50V50.6L50,50.6z M50,50.7h0.3v0.4H50V50.7L50,50.7
	z M50,51.2h2.7v0.5H50V51.2L50,51.2z M45.7,53.6c0.1,0-0.2,0.4-0.5,0.5c-0.1,0-0.1,0.1-0.1,0.1c0,0.1-0.1,0.2-0.1,0.2
	c-0.1,0.1-0.2,0-0.2,0v-0.9h0.9V53.6z M49.1,47.4L49.1,47.4L49.1,47.4L49.1,47.4C49,47.4,49,47.4,49.1,47.4c-0.3,0-0.4,0.3-0.4,0.4
	c-0.1,0.1-0.1,0.3-0.1,0.3c-0.2,0.1-0.4,0.5-0.2,0.6c0.1,0.1,0,0.2,0.2,0.2H49l0,0l0,0h0.5c0.2,0,0-0.1,0.2-0.2
	c0.2-0.2,0-0.5-0.2-0.6c0,0,0-0.2-0.1-0.3C49.3,47.6,49.2,47.4,49.1,47.4L49.1,47.4z M48,50.6h-0.3c-0.3,0-0.3-0.2-0.4-0.4
	C47.2,50,47,49.9,47,49.7s0.2-0.3,0.3-0.3l0,0c0,0-0.1,0.1,0,0.2c0.1,0.2,0.4,0.2,0.5,0.4c0,0.1,0.1,0.2,0.1,0.3s0,0.1,0,0.1H48
	V50.6L48,50.6z M50,51.9h2.7V53H50V51.9L50,51.9z M50,53.1h2.7v0.5H50V53.1L50,53.1z M50,54.5c0-0.1,0.1-0.2,0.2-0.2
	c0.2-0.1,0.5-0.3,0.6-0.5c0-0.1,0-0.1,0-0.1l0,0l0,0H50V54.5L50,54.5z M52.6,54.5c0,0-0.1-0.2-0.2-0.2c-0.2-0.1-0.5-0.3-0.6-0.5
	c0-0.1,0-0.1,0-0.1h0.9v0.8H52.6z M52.6,50.9v0.2c0,0-0.2,0-0.3,0S52,51,51.9,50.9c-0.1-0.1-0.1-0.1-0.1-0.2c0-0.1,0-0.1,0.1-0.2
	c0.1-0.1,0-0.1,0.1-0.2c0.1-0.1,0.2-0.2,0.4-0.1h0.1v0.6L52.6,50.9L52.6,50.9z M54.4,51.2h0.3c0.2,0,0.3-0.2,0.4-0.4
	c0.1-0.3,0.3-0.3,0.3-0.6c0-0.2-0.1-0.3-0.2-0.2l0,0c0,0,0,0.1,0,0.2c-0.1,0.2-0.5,0.2-0.6,0.4c0,0.1-0.1,0.2-0.1,0.3s0,0.1,0,0.1
	h-0.1L54.4,51.2L54.4,51.2z M54.4,53.1h0.4v0.5h-0.4V53.1L54.4,53.1z M54.4,51.2h0.4v0.5h-0.4V51.2L54.4,51.2z M54.5,56.5
	c0,0,0.4,0.2,0.5,0.5c0.1,0.2,0.1,0.3,0.1,0.3c0.3,0.2,0.6,0.5,0.6,1c0,0.3-0.1,0.5-0.1,0.5s0.3,0.3,0.4,0.5c0.1,0.2,0,0.9-0.1,0.9
	h-1.4V56.5L54.5,56.5z M54.5,60.4h1.7v0.5h-1.7V60.4z"/>
<path class="st2" d="M40,8L40,8L40,8c10.6,0,20.3,4.3,27.2,11.3s11.3,16.6,11.3,27.2l0,0l0,0l0,0l0,0c0,10.6-4.3,20.3-11.3,27.2
	S50.6,85,40,85l0,0l0,0v-0.9l0,0l0,0c10.4,0,19.8-4.2,26.6-11s11-16.2,11-26.6l0,0l0,0l0,0l0,0c0-10.4-4.2-19.8-11-26.6
	S50.4,8.9,40,8.9l0,0l0,0V8L40,8z M40,23L40,23L40,23c6.5,0,12.3,2.6,16.6,6.9c4.2,4.2,6.9,10.1,6.9,16.6l0,0l0,0l0,0l0,0
	c0,6.5-2.6,12.4-6.9,16.6c-2.8,2.8-6.3,4.9-10.2,6l0.5,0.7c4-1.2,7.5-3.3,10.3-6.1c4.4-4.4,7.1-10.5,7.1-17.2l0,0l0,0l0,0l0,0
	c0-6.7-2.7-12.8-7.1-17.2S46.7,22.2,40,22.2l0,0l0,0C40,22.2,40,23,40,23z M40,85L40,85L40,85c-10.6,0-20.3-4.3-27.2-11.3
	S1.5,57.1,1.5,46.5l0,0l0,0l0,0l0,0c0-10.6,4.3-20.3,11.3-27.2S29.4,8,40,8l0,0l0,0v0.9l0,0l0,0c-10.4,0-19.8,4.2-26.6,11
	s-11,16.2-11,26.6l0,0l0,0l0,0l0,0c0,10.4,4.2,19.8,11,26.6c6.8,6.8,16.2,11,26.6,11l0,0l0,0V85L40,85z M40,22.2L40,22.2L40,22.2
	L40,22.2c-6.7,0-12.8,2.7-17.2,7.1s-7.1,10.5-7.1,17.2l0,0l0,0l0,0l0,0c0,6.7,2.7,12.8,7.1,17.2c2.8,2.8,6.4,5,10.3,6.1l0.5-0.7
	c-3.9-1.1-7.4-3.2-10.2-6c-4.3-4.2-6.9-10.1-6.9-16.6l0,0l0,0l0,0l0,0c0-6.5,2.6-12.3,6.9-16.6C27.7,25.7,33.5,23,40,23l0,0l0,0l0,0
	V22.2z"/>
<path class="st1" d="M45,37.7c0.3,0,0.5-0.1,0.6-0.1c0.3-0.1,0.7-0.4,1.1-0.7c0.4-0.3,1.1-0.6,1.6-0.7c0.5-0.2,0.5-0.3,0.5-0.5
	c0-0.1-0.3-0.4-0.8-0.8c-0.5-0.4-0.7-1-1.2-1.5c-0.3-0.3-0.8-0.6-1-0.6c-0.1,0-0.3-0.1-0.5-0.1c0-0.1,0-0.7-0.1-0.9
	s-0.1-0.4-0.2-0.5v2.1c0.6,0.1,0.9,0.2,1.2,0.5s0.4,0.6,0.6,1c0.2,0.3,0.8,0.8,0.8,0.8s-0.9,0.3-1.3,0.6c-0.5,0.4-0.7,0.6-1.3,0.6
	C45,36.9,45,37.7,45,37.7z M43.5,38.3c0.1-0.2,0.3-0.5,0.3-0.7v-0.1l0,0c0,0,0.4,0.1,0.8,0.2c0.1,0,0.2,0,0.4,0v-0.8
	c-0.1,0-0.2,0-0.3,0c-0.3,0-0.7-0.1-0.8-0.2h-0.1c-0.1-0.3-0.2-0.5-0.3-0.6L43.5,38.3L43.5,38.3z M45,31.3c-0.2-0.5-0.3-1-0.4-1.7
	c0-0.1,0-0.4-0.1-0.4s-0.4-0.2-0.6,0c-0.1,0.1-0.3,0.2-0.5,0.2v0.8c0.1,0,0.2-0.1,0.3-0.1c0.2-0.1,0.2-0.1,0.2-0.1s0.1,0.4,0.1,0.6
	s0.1,0.6,0.2,0.8c0.2,0.5,0.3,0.8,0.3,1.3l0,0c-0.4,0-0.7,0.1-1.1,0.2l0,0v0.9c0.4-0.3,0.7-0.4,1.3-0.4c0.1,0,0.1,0,0.2,0L45,31.3
	L45,31.3z M42.8,38.9c0.3-0.1,0.5-0.3,0.7-0.6v-2.2c-0.1-0.1-0.1-0.2-0.2-0.2c-0.1-0.1-0.3-0.3-0.5-0.5v0.9c0.2,0.2,0.3,0.4,0.4,0.7
	c0.1,0.3-0.1,0.7-0.4,1V38.9L42.8,38.9z M43.5,29.3c-0.1,0.1-0.3,0.1-0.4,0.1c-0.1,0-0.2,0.1-0.3,0.1v0.8c0.3-0.1,0.5-0.1,0.7-0.2
	V29.3L43.5,29.3z M43.5,32.9v0.9c-0.1,0.1-0.2,0.1-0.3,0.2c-0.2,0.1-0.3,0.3-0.4,0.5v-1.1C43,33.2,43.2,33,43.5,32.9z M42.5,39
	c0.1,0,0.2-0.1,0.3-0.1V38c-0.1,0.1-0.2,0.2-0.3,0.2V39L42.5,39z M42.8,29.4c-0.1,0-0.2,0.1-0.3,0.1v0.7c0.1,0,0.2,0,0.3-0.1V29.4
	L42.8,29.4z M42.8,33.3v1.1c-0.1,0.2-0.2,0.5-0.3,0.6v-1.4C42.6,33.5,42.7,33.4,42.8,33.3L42.8,33.3z M42.8,35.4v0.9
	c-0.1-0.1-0.2-0.2-0.3-0.3v-0.7C42.6,35.3,42.7,35.4,42.8,35.4L42.8,35.4z M42.5,33.2v-0.6c0.1,0.1,0.1,0.2,0.1,0.3
	S42.5,33.1,42.5,33.2z M42,40.1c0.2-0.4,0.4-0.7,0.5-1.1l0,0l0,0v-0.8c-0.1,0-0.1,0.1-0.2,0.1c-0.1,0-0.2,0.1-0.3,0.1V40.1L42,40.1z
	 M42.5,29.5c-0.2,0.1-0.4,0.1-0.5,0.2v0.7c0.1,0,0.1,0,0.2-0.1c0.1,0,0.2-0.1,0.3-0.1V29.5L42.5,29.5z M42.5,32.6v0.6
	c-0.1,0.2-0.3,0.3-0.5,0.3v-1.2C42.2,32.3,42.4,32.4,42.5,32.6L42.5,32.6z M42.5,33.6V35c0,0.1,0,0.1,0,0.1v0.1h0.1V36
	c-0.1-0.1-0.3-0.2-0.5-0.2v-1.4c0-0.1,0.1-0.1,0.1-0.2C42.2,34,42.3,33.8,42.5,33.6z M39.9,41.6c0.6,0,1.1-0.3,1.5-0.7
	c0.3-0.3,0.5-0.5,0.6-0.9v-1.7c-0.4,0.1-0.9,0.2-1.1,0.4c-0.4,0.2-0.8,0.7-1,0.9v0.9c0.1-0.1,0.4-0.4,1-0.9c0.3-0.3,0.5-0.4,0.8-0.5
	c0,0.1-0.1,0.2-0.2,0.5c-0.2,0.6-0.9,1.3-1.6,1.3V41.6L39.9,41.6z M42,29.7L42,29.7c-0.9,0.4-1.4,0.8-2.1,1.3l0,0v0.7
	c0.7-0.2,1.3-1,2.1-1.3V29.7L42,29.7z M42,32.3v1.2c-0.3,0-0.6-0.3-0.6-0.6C41.4,32.6,41.7,32.3,42,32.3L42,32.3z M42,34.4v1.4
	c-0.1,0-0.3,0-0.4,0c-0.5,0-1.2,0.5-1.5,0.7c-0.1,0.1-0.2,0.1-0.3,0.1v-2.9h0.4v1.9c0,0,0.1,0,0.1-0.1s0-0.2,0.1-0.3
	c0-0.2,0.1-0.4,0.2-0.6c0.2-0.4,0.6-1,0.6-1l0.6,0.4c-0.2,0.2-0.4,0.6-0.5,0.9c0,0.1-0.1,0.1-0.1,0.2c0.2-0.1,0.4-0.1,0.6-0.1
	C41.8,35,41.8,34.7,42,34.4L42,34.4z M39.9,33.1v-1.2c0.3,0,0.6,0.3,0.6,0.6C40.5,32.9,40.2,33.1,39.9,33.1z M37.8,40.1
	c0.2,0.3,0.4,0.6,0.6,0.9c0.4,0.4,0.9,0.6,1.5,0.7V41c-0.7,0-1.3-0.7-1.6-1.3c-0.1-0.2-0.1-0.4-0.2-0.5c0.2,0.1,0.5,0.2,0.8,0.5
	c0.6,0.5,0.8,0.8,0.9,0.9v-0.9c-0.2-0.2-0.6-0.6-1-0.9c-0.2-0.2-0.7-0.3-1.1-0.4L37.8,40.1L37.8,40.1z M39.9,31L39.9,31
	c-0.7-0.5-1.2-1-2.1-1.3c0,0,0,0-0.1,0v0.7c0.8,0.3,1.4,1.1,2.1,1.3L39.9,31L39.9,31z M39.9,31.9v1.2c-0.3,0-0.6-0.3-0.6-0.6
	C39.3,32.2,39.5,31.9,39.9,31.9L39.9,31.9z M39.9,33.7v2.9c0,0-0.1,0-0.2-0.1c-0.3-0.2-1-0.7-1.5-0.7c-0.1,0-0.3,0-0.4,0v-1.4
	c0.2,0.3,0.2,0.5,0.3,0.7c0.2,0,0.4,0,0.6,0.1c0-0.1,0-0.1-0.1-0.2c-0.1-0.3-0.3-0.7-0.5-0.9l0.6-0.4c0,0,0.4,0.5,0.5,1
	c0.1,0.2,0.2,0.4,0.2,0.6c0,0.1,0,0.3,0.1,0.3l0.1,0.1v-1.9L39.9,33.7L39.9,33.7z M37.8,33.5v-1.2c0.3,0,0.6,0.3,0.6,0.6
	C38.4,33.2,38.1,33.5,37.8,33.5z M37.3,39c0.1,0.4,0.3,0.7,0.5,1.1v-1.7c-0.1,0-0.2-0.1-0.3-0.1s-0.2-0.1-0.2-0.1V39L37.3,39
	L37.3,39L37.3,39z M37.8,29.7c-0.1-0.1-0.3-0.1-0.5-0.2v0.7c0.1,0,0.2,0.1,0.3,0.1s0.1,0,0.2,0.1V29.7L37.8,29.7z M37.8,32.3v1.2
	l0,0c-0.2,0-0.4-0.1-0.5-0.3v-0.6C37.3,32.4,37.6,32.3,37.8,32.3L37.8,32.3L37.8,32.3z M37.8,34.4v1.4c-0.2,0.1-0.4,0.1-0.5,0.2
	v-0.7h0.1v-0.1c0,0,0,0-0.1-0.1v-1.4C37.5,33.9,37.6,34.1,37.8,34.4C37.7,34.3,37.7,34.4,37.8,34.4z M37.2,29.5
	c-0.1,0-0.2,0-0.3-0.1v0.8c0.1,0,0.2,0,0.3,0.1V29.5L37.2,29.5z M37,38.9c0.1,0,0.2,0.1,0.3,0.1v-0.8c-0.2,0-0.3-0.1-0.3-0.2V38.9
	L37,38.9z M37.2,32.6v0.6c-0.1-0.1-0.1-0.2-0.1-0.3C37.2,32.8,37.2,32.7,37.2,32.6L37.2,32.6z M37.2,33.6V35
	c-0.1-0.1-0.1-0.4-0.3-0.6v-1.1C37.1,33.4,37.2,33.5,37.2,33.6L37.2,33.6z M37.2,35.3V36c-0.1,0.1-0.2,0.2-0.3,0.3v-0.9
	C37,35.4,37.1,35.3,37.2,35.3z M37,29.4c-0.1,0-0.2-0.1-0.3-0.1s-0.3-0.1-0.4-0.1V30c0.2,0.1,0.4,0.1,0.7,0.2V29.4L37,29.4z
	 M36.3,38.3c0.2,0.3,0.4,0.5,0.7,0.6V38c-0.3-0.3-0.4-0.7-0.4-1c0.1-0.3,0.2-0.5,0.4-0.7v-0.9c-0.2,0.2-0.4,0.3-0.5,0.5
	c-0.1,0.1-0.1,0.1-0.2,0.2V38.3L36.3,38.3z M37,33.3v1.1c-0.1-0.2-0.3-0.4-0.4-0.5c-0.1-0.1-0.2-0.1-0.3-0.2v-0.9
	C36.6,33,36.8,33.2,37,33.3z M36.3,29.3c-0.2-0.1-0.4-0.1-0.5-0.2c-0.2-0.1-0.4,0-0.6,0c-0.1,0-0.1,0.3-0.1,0.4
	c0,0.7-0.2,1.2-0.4,1.7v2.1c0.1,0,0.1,0,0.2,0c0.6-0.1,1,0.1,1.4,0.4v-0.9l0,0c-0.3-0.1-0.7-0.2-1.1-0.2l0,0c0-0.5,0.1-0.8,0.3-1.3
	c0.1-0.2,0.2-0.6,0.2-0.8c0-0.2,0.1-0.6,0.1-0.6s0,0,0.2,0.1c0.1,0,0.2,0.1,0.3,0.1L36.3,29.3L36.3,29.3z M34.7,37.7
	c0.1,0,0.2,0,0.4,0c0.4,0,0.8-0.2,0.8-0.2l0,0v0.1c0.1,0.3,0.2,0.5,0.3,0.7v-2.2c-0.1,0.2-0.3,0.4-0.3,0.6h-0.1
	c-0.1,0-0.5,0.1-0.8,0.2c-0.1,0-0.2,0-0.3,0C34.7,36.9,34.7,37.7,34.7,37.7z M34.7,31.3c-0.1,0.2-0.2,0.4-0.2,0.5s-0.1,0.8,0,0.9
	c-0.2,0-0.4,0.1-0.5,0.1c-0.2,0.1-0.7,0.4-1,0.6c-0.5,0.5-0.7,1.1-1.2,1.5S31,35.5,31,35.7c0,0.1,0,0.3,0.5,0.5s1.1,0.5,1.6,0.7
	c0.4,0.3,0.7,0.6,1.1,0.7c0.1,0,0.3,0.1,0.6,0.1v-0.8c-0.5-0.1-0.8-0.3-1.3-0.6c-0.4-0.3-1.3-0.6-1.3-0.6s0.6-0.5,0.8-0.8
	s0.3-0.7,0.6-1s0.6-0.4,1.2-0.5L34.7,31.3L34.7,31.3z"/>
<path class="st2" d="M8.3,35.1c0,0-0.3-0.3-0.3-0.1c-0.1,0.3-0.2,0.5-0.2,0.5c-0.1,0-0.4-0.1-0.3-0.2c0-0.1,0.1-0.5,0-0.5
	s-0.7-0.2-0.7-0.2s-0.4-0.1-0.4-0.3c-0.1-0.2,0-0.6,0.1-0.8c0.2-0.2,0.2-0.1,0.3-0.1c0.1,0,0.2-0.1,0.4,0.1c0.2,0.2,0.7,0.6,0.6,0.4
	c-0.1-0.2-0.1-0.7-0.3-1.1c-0.2-0.5-0.7-1-0.6-1.2c0.1-0.3,0.4-0.4,0.5-0.5c0.2,0,0.5,0.3,0.5,0.3s0,0.5,0.1,0.8
	c0.1,0.7,0,0.8,0.1,1.4c0.1,0.3-0.1,0.7,0.2,0.7s1.1,1.1,1,0.6c0-0.2,0-0.2-0.1-0.3s-0.5-0.7-0.3-0.7s0.5,0,0.3-0.2S8.7,33.1,8.6,33
	c-0.1-0.1-0.4-0.4-0.2-0.6c0.2-0.1,0.4-0.1,0.5,0.1C9,32.6,9,32.8,9.2,32.9c0.1,0,0.2,0.2,0.2-0.1c-0.1-0.3-0.2-0.7-0.3-0.8
	s0.1-0.4,0.2-0.5c0.1-0.1,0.2,0.1,0.2,0.3c0,0.1,0.1,0.5,0.2,0.8c0,0.3,0,0.6,0,0.6c0.1,0.2,0.7,1.4,0.8,1.5s0.1,0,0.2,0
	c0,0,0,0,0-0.1c-0.1-0.3-0.1-2,0-2.3s0.1-0.5,0.3-0.4c0.1,0.1,0.3,0.4,0.3,0.5c0,0.2-0.1,0.4-0.2,0.6c-0.1,0.2-0.1,1.3,0,1.5
	c0,0.2,0,0.4,0,0.4c0.2,0.1,1.3,0.7,1.5,0.6v-0.1c0-0.2,0-0.6,0.2-0.7c0.2,0,0.4,0.1,0.4,0.3c-0.1,0.2-0.2,0.7-0.1,0.8
	c0.2,0.1,1.7,0.5,1.9,0.5c0.3,0.1,1.2,0.4,0.8,0.7c-0.4,0.3-0.7,0.5-0.8,0.5s-0.3,0-0.2-0.2s0.2-0.3-0.6-0.6s-1-0.5-1.1-0.4
	c0,0.1,0.1,0.6,0.2,0.7c0.1,0.1,0.5,0.5,0.2,0.7c-0.3,0.3-0.7,0.2-0.7,0s0-0.1,0-0.2c0-0.1-0.2-0.7-0.2-1.1c0-0.3,0.1-0.3,0.1-0.3
	l-1.3-0.5c0,0-0.2-0.1-0.1,0.3c0.1,0.3,0.2,1.2,0.5,2.1c0.3,0.9,0.6,1,0.5,1.4s-0.4,0.7-0.4,0.6c-0.1-0.2-0.3,0-0.4-0.2
	c-0.4-1-0.4-2.6-0.5-3.6c-0.1-0.4-0.1-0.7-0.1-0.7s-1-0.5-1.1-0.6c-0.1-0.1,0,0.4,0,0.9c0,0.2,0,0.4,0,0.5c0.1,0.3,0.2,0.7,0,0.8
	c-0.8,0.4-0.5-1-0.6-1.2c0-0.1-0.1,0-0.2-0.1C8.9,35.5,8.6,35.3,8.3,35.1z"/>
<path class="st2" d="M18.5,25.6c0,0,0.1-0.2,0.3-0.2c0.4,0,2.2,1.5,2.1,1.8c0,0.1-0.5,0.8-0.7,0.7c-0.2-0.1-0.3-0.4-0.4-0.6
	C19.4,26.7,18.9,26.1,18.5,25.6z"/>
<path class="st2" d="M21.4,20.8c0.5,0.6,1,1.2,1.4,1.6c1,1,1.5,1.6,1.5,1.6s0,0.6-0.6,0.6c-0.5,0.1-1.4,0.1-1.6,0.1
	c-0.1-0.1-0.1-0.1,0.2-0.2c0.3-0.1,0.8-0.2,0.7-0.4c0-0.2-1.2-1.4-1.7-2v-1.3H21.4z M21.4,25.6L21.4,25.6c0.3,0.3,0.5,0.3,0.8,0.3
	c0.3-0.1,0-0.5,0-0.5s-0.7-0.9-0.8-1c-0.1-0.1,0-0.5,0-0.8c0-0.1,0-0.1-0.1-0.1v2.1H21.4z M20.6,19.8c0.2,0.3,0.5,0.7,0.8,1V22l0,0
	c-0.2-0.3-0.5-0.7-0.8-1.1V19.8L20.6,19.8z M21.4,23.5v2.1c-0.2-0.2-0.3-0.3-0.4-0.2c-0.1,0.1-0.3,0.4-0.4,0.4v-0.1
	c0.1-0.3,0.3-0.5,0.3-0.5l-0.3-0.3v-0.3c0.2-0.1,0.5-0.3,0.5-0.3s0-0.5,0.1-0.6C21.1,23.5,21.3,23.4,21.4,23.5L21.4,23.5z
	 M20.6,23.6c0.1-0.1,0.1-0.2,0.2-0.3c0.1-0.1-0.1-0.2-0.2-0.2V23.6z M20.2,19.2c0.1,0.2,0.3,0.4,0.4,0.5v1.1
	c-0.1-0.2-0.3-0.4-0.4-0.6V19.2L20.2,19.2z M20.6,23.1v0.5c-0.1,0.2-0.2,0.3-0.2,0.4c0,0.2-0.1,0.1-0.1,0.1s0,0-0.1,0v-1
	c0.1-0.1,0.2-0.1,0.2-0.1C20.5,23.1,20.5,23.1,20.6,23.1L20.6,23.1z M20.6,24.5v0.3l-0.2-0.2C20.4,24.6,20.5,24.5,20.6,24.5
	L20.6,24.5z M20.6,25.6v0.1C20.6,25.8,20.6,25.7,20.6,25.6L20.6,25.6z M17.1,24.1c0,0,0,0.4-0.1,0.6c-0.1,0.1-0.3,0.1-0.3,0.2
	c-0.1,0,0-0.1-0.1,0s-0.7,0.1-0.5-0.2c0.2-0.4,0.2-0.3,0.3-0.5c0.1-0.2,0.2-0.9,0.3-1.2c0.1-0.3,0.3-1,0.3-1s0.1-0.2-0.3-0.8
	s-0.6-1-0.7-1.1s-0.1-0.3,0-0.3c0.2,0,1.2,0.2,1.3,0.2s0.2,0.1,0.2-0.2c0.1-0.2,0.1-0.5,0.3-0.4s0.5,0.5,0.4,1s-0.3,0.8-0.1,1.4
	c0.2,0.6,0.2,1.1,0.3,1.2c0.1,0.1,0.2,0.5,0.3,0.4c0.1-0.1,0.4-0.5,0.4-1.1c0-0.4-0.1-0.6-0.2-0.8l0,0c-0.1-0.2,0-0.5,0.2-0.5l0,0
	c0.2-0.7,0.2-1.3,0.5-2c0.1-0.2,0.3-0.4,0.5-0.2c0.1,0.1,0.1,0.2,0.2,0.4v1.1c-0.2-0.3-0.3-0.5-0.4-0.6s-0.2-0.3-0.3,0.4
	c-0.1,0.7-0.2,0.8,0,0.9s0.5,0.2,0.3,0.6c-0.1,0.5-0.5,0.8-0.4,1s0,0.5,0.1,0.7c0.1,0.1,0,0.5-0.2,0.4c-0.2,0-0.4-0.1-0.4-0.1v1
	c0,0-0.7,0.6-0.6,0.3s0.3-0.6,0.3-0.9c0-0.2-0.3-0.3-0.4-0.6c-0.1-0.2-0.5-1.2-0.7-1c-0.2,0.1-0.4,1-0.4,1.3
	C17.2,24,17.1,24.1,17.1,24.1L17.1,24.1z M20.2,23.2c-0.1,0.1-0.2,0.3-0.2,0.4s-0.5,0.4-0.4,0.6s0.2,0.3,0.4,0.2
	c0.1-0.1,0.2-0.1,0.2-0.1V23.2z"/>
<path class="st2" d="M34.5,13.3L34,13.6c0,0,0-0.4,0.6-1c0.6-0.5,1.1-1.1,1.4-1.2c0.3-0.1,0.7-0.1,0.7,0.2s-0.1,0.8-0.2,1.1
	C36.3,12.8,36,15,36,15.2s-0.5,0.5-0.6,0.5s-0.1,0.3-0.1,0.8s0,0.6,0.2,0.6s0.7-0.2,0.8,0.1c0,0.3-0.5,1.3-0.6,1.4
	c-0.1,0.2-0.2,0.4,0.1,0.4s0.5-0.2,0.8-0.3c0.2-0.1,0.3,0,0.5,0.2s0.1,0.7-0.4,0.7c-0.5,0.1-0.5,0.2-0.7,0.2s-1,0-1.1-0.3
	s0.3-0.2,0.2-0.4C35,19,35,18.2,35,18.2c-0.1,0-0.5-0.2-0.4-0.3c0-0.1,0.1-0.1,0.2-0.2c0.1-0.3,0-0.7-0.1-0.9
	c-0.1-0.2-0.5-0.3-0.4-0.6c0.1-0.1,0.1-0.1,0.2-0.2c0.1-0.2,0.1-0.6,0.2-0.7c0.1-0.1-0.1-0.2-0.2-0.1c-0.1,0-0.3-0.2-0.2-0.4
	c0.1-0.1,0.4-0.1,0.5-0.3c0.1-0.1,0-0.4,0.1-0.6c0.1-0.4,0.1-0.4,0.1-0.4s0.3-0.3,0.3-0.1c0.1,0.2,0,0.5,0,0.8
	c0,0.2,0.1,0.5,0.2,0.3c0.1-0.2,0.4-1.8,0.5-2c0.1-0.3,0.1-0.6-0.1-0.4C35.4,12.4,34.8,12.9,34.5,13.3z"/>
<path class="st2" d="M33.1,14c-0.1,0-0.2-0.2,0-0.3c0.3-0.1,0.7-0.2,0.7,0.1s0.2,1.1,0.2,1.3s0.1,0.5-0.3,0.5
	c-0.4,0-0.4-0.3-0.4-0.7C33.3,14.6,33.2,14.1,33.1,14z"/>
<path class="st2" d="M31.3,14.9c0,0-0.1,0.1-0.2,0.2c-0.1,0.1-0.2,0.2-0.3,0.2c-0.1,0-0.6-0.2-0.6-0.3s-0.1-0.2,0-0.4
	c0.3-0.3,1-0.8,1.2-0.9c0.2-0.2,0.7-0.6,0.7-0.4c0,0.1,0.4,0.3,0.3,0.5c0,0.3-0.2,0.8-0.2,1c0,0.3-0.1,1.4-0.1,1.4s0.3,0,0.3,0.2
	c-0.1,0.2-0.4,0.4-0.2,0.5c0.2,0.2,0.3,0,0.4-0.2c0.1-0.2,0.2-0.5,0.2-0.5s0,0.6-0.3,1.7s-0.6,1.6-0.8,1.7c-0.3,0.2-0.6,0.1-0.5-0.2
	c0.1-0.3,0.1-0.6,0.1-0.7c0.1-0.2,0.2-0.6,0.3-0.7s0-0.6-0.2-0.6s-0.6,0.3-0.8,0.3c-0.2,0.1,0-0.6,0-0.6c0.1,0.1,0.1-0.1,0.2-0.2
	c0.2-0.2,0.5-0.3,0.5-0.3s0.3-0.1,0.3-0.5c0-0.5,0-1.2-0.1-1.3C31.4,14.8,31.3,14.9,31.3,14.9z"/>
<path class="st2" d="M49.1,14.3c0,0-0.1-0.1-0.1-0.2c0.1-0.1,0.3-0.2,0.6,0c0.4,0.3,0.7,0.4,1.6,0.5c0.9,0.1,1.1-0.1,1.3,0
	s0.8,0.5,0.8,0.5s0,0.4-0.2,0.5c-0.1,0.1-1,0.7-1.6,1.3c-0.4,0.4-0.7,0.7-0.8,0.8c-0.2,0.2,0.2,0.1,0.6,0.1c0.1,0,0.2-0.2,0.2-0.2
	c0.2,0,0.5,0.3,0.5,0.3c0.1,0.1-0.1,0.7-0.7,0.6c-0.7-0.1-1.4,0.1-2.1,0.3c-0.7,0.2-1.7,0.5-2,0.7s-0.6-0.1-1-0.3
	c-0.1-0.1-0.3-0.2-0.3-0.4c-0.1-0.3-0.1-0.7,0.2-0.7c0.4,0,0.3,0,0.7,0.1s0.2,0.1,0.8-0.1s1.2-0.3,1.4-0.3c0.2-0.1,1.7-1.4,1.9-1.7
	c0.3-0.2,1.5-1.1,1.3-1.1c-0.3-0.1-1.4,0.3-1.7,0.3c-0.1,0-0.1,0.2-0.2,0.2c-0.3,0.1-0.7-0.1-0.9-0.4C49.2,15,49,14.5,49.1,14.3z"/>
<path class="st2" d="M62.4,24.8c0,0-0.1,0.3-0.1,0.6s0.1,1.1,0.2,1.5c0.1,0.4,0.3,0.8,0.4,1c0.1,0.1,0.2,0.5-0.1,0.3
	c-0.2-0.1-0.4-0.4-0.6-0.5c-0.3-0.2-0.5-0.3-0.7-0.4c-0.2-0.2-0.2-0.2-0.1-0.9c0.1-0.5,0.3-0.7,0.3-1c0-0.2,0.1-0.5,0.2-0.5
	C62.1,24.8,62.4,24.8,62.4,24.8z"/>
<path class="st2" d="M63.6,21.7c0.1-0.1,0.1-0.2,0.1-0.4c0-0.1,0.2-0.2,0.4-0.2c0.2,0,0.2-0.1,0.4,0.2c0.2,0.3,0.5,0.5,0.2,0.9
	c-0.2,0.3-1,1.2-1,1.3c0.1,0.1,0-0.1,0.2,0c0.3,0.1,0.5,0,0.6,0.1c0.1,0.3-0.3,0.8-0.5,0.7c-0.2-0.1-0.6-0.4-0.9-0.3
	c-0.2,0.1-0.4,0.3-0.6,0.4c-0.2,0.1-0.4,0.1-0.6,0.2c-0.4,0.3-1.1,0.6-1.3,0.6s-1.4,0.2-1.8,0.3c-0.5,0.1-1,0-1.3,0
	c-0.6,0-1.1,0-1.8-0.1c-0.1,0,0-0.2,0.4-0.3c0.2,0,0.9-0.2,1.6-0.2c0.6-0.1,1.1,0,1.5-0.1c0.9-0.3,2-0.4,2.2-0.7
	c0.2-0.3,0.1-0.2-0.3-0.2c-0.3,0-0.9,0.1-1.2-0.3c-0.1-0.1-0.1-0.2-0.1-0.3c0-0.1,0.1-0.2,0.2-0.3c0.1,0,0.3,0.1,0.4,0.1
	c0.3,0.1,1.2,0.1,1.3,0.2c0.2,0.1,0.7,0,0.8-0.1C62.7,23,63.5,21.8,63.6,21.7z"/>
<path class="st2" d="M70.9,34.9c0.1,0,0.1,0,0.2,0s0.3,0.3,0.2,0.3c-0.1,0-0.2,0.1-0.3,0.1v0.4c0.1,0,0.2,0,0.3,0
	c0.2-0.1,0.2-0.1,0.3-0.5c0.1-0.3,0.4,0,0.5,0.2c0.1,0.1,0.5,0.4,0.5,0.6c0.1,0.2-0.3,0.2-0.5,0.1C71.8,36,71.3,36,70.9,36l0,0v0.3
	H71c0.5,0,1,0.3,1.4,0.4c0.2,0.1,0.4,0.1,0.6,0.1c0.2-0.1,0.4-0.2,0.4-0.4c0-0.1,0.1-0.4-0.2-0.5c-0.3-0.1-1-0.7-1.2-0.7
	c-0.2-0.1-0.3-0.2-0.3-0.4c0.1-0.2-0.1-0.3,0-0.4c0.1-0.2,0.3-0.2,0.6-0.1c0.3,0.1,0.7,0.2,1.1,0.4c0.3,0.1,0.4-0.1,0.6-0.1
	s0.2-0.1,0.2-0.6s-0.3-0.5-0.4-0.4c0,0.1-0.1,0-0.5,0.3s-1.8-0.1-1.9-0.1s-0.1-0.2-0.2-0.4s-0.2-0.3-0.4-0.3l0,0v0.4
	c0.1,0.1,0.1,0.2,0.1,0.2s0,0-0.1,0V34c0.2,0.1,0.3,0.2,0.3,0.3c0,0.2,0,0.2-0.1,0.1c-0.1-0.1-0.1-0.1-0.2-0.1L70.9,34.9L70.9,34.9z
	 M70.9,32.7v-0.6c0,0,0.1,0,0.1,0.1C71.1,32.4,71,32.6,70.9,32.7L70.9,32.7z M70.5,35L70.5,35c0.2-0.1,0.3-0.1,0.4-0.1v-0.6h-0.1
	c0,0-0.2-0.1-0.2-0.2c-0.1-0.1,0-0.4,0.2-0.3c0,0,0,0,0.1,0v-0.3c-0.1,0.1-0.2,0.1-0.2,0c-0.1-0.1-0.1-0.1-0.1-0.1s-0.1-0.1-0.1-0.2
	v0.4l0,0L70.5,35L70.5,35z M70.9,35.3c-0.1,0-0.1,0-0.2,0s-0.2,0-0.2-0.1v0.3c0,0,0.1,0,0.1,0.1c0.1,0.1,0.2,0.1,0.3,0.1L70.9,35.3
	L70.9,35.3z M70.9,32.1v0.6c0,0.1,0,0.2,0,0.2v0.4c0-0.1-0.1-0.1-0.1-0.2c-0.1-0.2-0.1,0-0.3,0.1l-0.1,0.1v-0.7
	c0.1-0.1,0.1-0.2,0.1-0.2C70.7,32.1,70.8,32.1,70.9,32.1L70.9,32.1z M70.9,36v0.3c-0.2,0-0.3,0-0.4,0V36C70.6,35.9,70.8,36,70.9,36z
	 M70.3,35.2c0-0.1,0-0.2,0.1-0.3v-1.2c0,0.1-0.1,0.2-0.1,0.2c-0.1,0-0.4,0-0.4,0s-0.1-0.3,0.3-0.4c0.2-0.1,0.2,0,0.2,0.1v-0.4l0,0
	v-0.7c-0.2,0.3-0.5,0.7-0.8,0.9c-0.3,0.3-0.6,0.2-0.5,0.1c0.1-0.1,0.2-0.5,0.2-0.6c0.1-0.1,0-0.3-0.1-0.5s-0.2,0.1-0.3,0.3
	c-0.1,0.3-0.3,0.5-0.4,0.6s-0.2,0.1-0.3,0.3c-0.2,0.2,0,0.1,0.2,0.2c0.2,0.1,0.9,0.1,1.2,0.2c0.2,0,0.4,0.2,0.4,0.4s-0.5,0.1-0.6,0
	c-0.2-0.1-0.4,0-0.3,0.1s0.4,0.2,0.8,0.3c0.4,0.2,0.3,0.3,0.2,0.4c-0.1,0-0.3,0-0.4,0.1c-0.1,0.2,0.5,0.2,0.6,0.2s0.2,0,0.3,0v-0.3
	C70.4,35.2,70.3,35.2,70.3,35.2L70.3,35.2z M70.5,35.9v0.3c-0.1,0-0.2,0-0.3,0.1c-0.1,0.2,0.2,0.6,0.1,0.6c-0.2,0.1-0.3,0.2-0.8-0.2
	s-0.8-0.5-1.1-0.6c-0.3-0.1-0.9-0.3-0.7-0.1c0.2,0.2,0.3,0.4,0.4,0.4s0.5,0.6,0.3,0.9c-0.2,0.3-0.2,0.2-0.6-0.1
	c-0.4-0.2-0.7-0.4-0.8-0.5c-0.1-0.1,0.3,0,0.5-0.1c0.1,0,0.3,0,0.1-0.2c-0.3-0.3-0.4-0.2-0.6-0.1c-0.2,0.1-0.4,0.3-0.5,0.4
	c-0.2,0.1-1,0.6-1.2,0.6c-0.2,0.1-0.7,0.1-0.8-0.1c0-0.1,0-0.3-0.1-0.4c-0.1-0.4-0.2-0.8-0.2-0.9c0-0.1,0.1-0.3,0.2-0.1
	s0.3,0.7,0.4,0.8c0,0,0.1-0.1,0.2-0.1c0.2,0,0.4,0,0.5-0.1c0.3-0.2,0.6-0.4,0.7-0.4c0.2-0.1,0.3-0.2-0.1-0.5s-1.2-0.6-1.6-1.2
	c-0.1-0.1-0.2-0.4-0.3-0.5c0-0.1,0.2-0.2,0.3-0.2c0.1,0,0.2,0.2,0.3,0.3c0.1,0.2,0.5,0.6,0.7,0.6c0.1,0,0.2,0,0.3,0.1
	c0.3,0.1,0.6,0.3,0.8,0.4c0.2,0.2,0.4,0.2,0.6,0.2s0.4,0.2,0.6,0.3c0.1,0.1,0.8,0.3,1,0.2s0.3-0.1,0.2-0.1c-0.2-0.1-1.1-0.8-1.3-1.2
	c0,0-0.3-0.2-0.4-0.2c-0.2-0.3,0.2-0.4,0.4-0.1c0.3,0.3,0.4,0.5,0.7,0.7c0.3,0.2,0.5,0.2,0.8,0.5s0.4,0.4,0.5,0.4
	C70,35.9,70.2,35.9,70.5,35.9z"/>
<path class="st2" d="M69.2,63.6V63h0.1c0.1-0.1,0.2-0.1,0.2-0.2c0.1-0.1,0.1-0.2,0.1-0.3s0-0.2-0.1-0.4c-0.1-0.1-0.2-0.2-0.3-0.4V61
	c0.3,0.3,0.6,0.6,0.7,0.8c0.2,0.4,0.2,0.8,0,1.3C69.7,63.3,69.5,63.5,69.2,63.6L69.2,63.6z M69.2,60.1l1.6,1l0.9-2l-0.4-0.2
	l-0.6,1.5l-1.4-0.8L69.2,60.1L69.2,60.1z M69.2,58.1v-0.6c0.1,0,0.1,0.1,0.2,0.1c0.4,0.2,0.9,0.3,1.1,0.4c0.3,0,0.4,0,0.6,0
	c0.8-0.1,0.8-0.7,0.3-1.1c-0.1-0.1-0.3-0.3-0.5-0.4c-0.2-0.1-0.7-0.3-1.1-0.5c-0.2-0.1-0.4-0.2-0.7-0.3v-0.6
	c0.3,0.1,0.6,0.2,0.9,0.3c0.7,0.3,1.5,0.7,1.8,1.1c0.3,0.4,0.5,0.9,0.4,1.3c-0.2,0.5-0.6,0.6-1,0.7C70.8,58.6,70,58.5,69.2,58.1
	L69.2,58.1L69.2,58.1z M69.2,54.8c1.1,0.4,2.5,0.5,3.2,0.4c0.4-0.1,0.7-0.4,0.8-0.9c0.1-0.4,0-0.7-0.2-0.9l0.4,0.1l0.1-0.4l-2.8-0.6
	l-0.2,1.3l0.5,0.1l0.1-0.7c0.2,0.1,1,0.2,1.1,0.3c0.2,0.1,0.3,0.1,0.4,0.2s0.2,0.2,0.2,0.3s0.1,0.2,0,0.4c0,0.1-0.1,0.2-0.1,0.3
	c-0.1,0.1-0.2,0.1-0.3,0.2c-0.8,0.2-2.2-0.1-3.1-0.4L69.2,54.8L69.2,54.8z M69.2,52.8v-0.6h0.1L69.2,52.8L69.2,52.8L69.2,52.8z
	 M69.2,51.6v-0.5l1.2-0.2l-1.2-0.6v-0.6l1.9,1l2.7,0.5l-0.1,0.6L71,51.3L69.2,51.6z M69.2,49.7v0.6l-1.1-0.5l0.1-0.6L69.2,49.7
	L69.2,49.7z M69.2,51.1v0.5L67.7,52l0.1-0.6L69.2,51.1L69.2,51.1z M69.2,52.2v0.6c-0.3-0.1-0.5-0.1-0.7,0c-0.4,0.1-0.4,0.4-0.3,0.7
	c0,0.1,0.1,0.2,0.2,0.3s0.3,0.2,0.5,0.3c0.1,0,0.2,0.1,0.3,0.1v0.6c-0.5-0.2-1-0.4-1.2-0.6c-0.3-0.3-0.5-0.7-0.5-1.2
	c0-0.4,0.4-0.8,0.7-0.9c0.2-0.1,0.3-0.1,0.5-0.1C68.9,52.1,69,52.2,69.2,52.2L69.2,52.2z M69.2,55.1c-0.6-0.2-1.2-0.3-1.5-0.3
	c-0.4,0.1-0.8,0.3-1,0.7c-0.1,0.5,0.1,1,0.4,1.3c0.3,0.4,1.3,0.9,2.1,1.2v-0.6c-0.4-0.2-1.1-0.5-1.2-0.6c-0.2-0.1-0.4-0.3-0.5-0.4
	c-0.4-0.4-0.4-1,0.3-1.1c0.1,0,0.3,0,0.6,0c0.1,0,0.5,0.1,0.8,0.3L69.2,55.1L69.2,55.1z M69.2,59.5v0.6l-3.4-1.9V58l0.1-0.4
	L69.2,59.5L69.2,59.5z M69.2,61c-0.4-0.3-0.8-0.6-1.1-0.9c-0.7-0.5-1.7-1-2.1-1.1c-0.1,0-0.1,0-0.2,0v0.6c0.1,0,0.1,0,0.2,0
	c0.2,0,0.3,0.1,0.6,0.2c0.2,0.1,0.9,0.6,1.3,0.8c0.3,0.2,1,0.8,1.2,1c0,0.1,0.1,0.1,0.1,0.1V61L69.2,61z M69.2,63v0.6
	c-0.1,0-0.2,0-0.3,0c-0.4,0-1.4-0.6-2.1-1.1c-0.3-0.2-0.6-0.5-1-0.7v-0.7l0,0c0.2,0.2,0.9,0.7,1.2,0.9c0.3,0.2,0.9,0.6,1.1,0.7
	c0.2,0.1,0.6,0.3,0.7,0.3C69,63,69.1,63,69.2,63L69.2,63z M65.8,67.4v-0.7l1,1l-0.3,0.4L65.8,67.4L65.8,67.4z M65.8,65.7l1.4,1.3
	l0.3-0.4L65.8,65V65.7L65.8,65.7z M65.8,64.1l2.6,1.2l0.3-0.5l-2.9-2.6V63l1.5,1.3l-1.5-0.7V64.1z M65.8,58v0.2h-0.1L65.8,58
	L65.8,58z M65.8,59v0.6c-0.1,0-0.1,0-0.2,0.1s-0.2,0.2-0.2,0.3c-0.1,0.1-0.1,0.2-0.1,0.3s0,0.2,0.1,0.4c0.1,0.1,0.2,0.3,0.4,0.5v0.7
	c-0.4-0.3-0.7-0.7-0.8-0.9c-0.2-0.4-0.2-0.9,0-1.3C65.2,59.2,65.5,59,65.8,59L65.8,59z M65.8,62.2l-1.5-1.3L64,61.4l1.8,1.6V62.2
	L65.8,62.2z M65.8,63.6v0.5l-2.1-1l2.1,1.8v0.7l-2.3-2v-1.2L65.8,63.6L65.8,63.6z M65.8,66.6l-2.3-2.4V65l0.7,0.7l-0.7,0.8v1.4
	l1.6,1.7l0.3-0.4l-1.8-2l0.9-1.1l1.2,1.3L65.8,66.6L65.8,66.6z M63.6,71.2v-0.6l0,0c0.1-0.1,0.1-0.1,0.2-0.2c0-0.1,0-0.2,0-0.3
	c0-0.1-0.1-0.3-0.1-0.4c0,0,0-0.1-0.1-0.1v-0.7l0.1-0.1c0.4,0.5,0.6,0.9,0.6,1.3s-0.1,0.7-0.4,1C63.8,71.1,63.7,71.2,63.6,71.2z
	 M63.6,62.4v1.2L62.9,63l0.5-0.7L63.6,62.4L63.6,62.4z M63.6,64.3l-0.9-0.9l-0.3,0.4l1.2,1.2V64.3L63.6,64.3z M63.6,66.5v1.4
	l-2.4-2.5v-0.2l0.2-0.3l1.9,1.9L63.6,66.5L63.6,66.5z M63.6,68.8v0.7c-0.1-0.1-0.2-0.3-0.3-0.4L63.6,68.8L63.6,68.8z M63.6,70.6
	c-0.1,0.1-0.2,0.1-0.3,0.1s-0.2,0-0.3-0.1c-0.2-0.1-0.3-0.2-0.5-0.4c-0.2-0.2-0.7-0.8-0.9-1.1c-0.1-0.1-0.2-0.3-0.3-0.5v0.9
	c0.5,0.7,1.2,1.4,1.6,1.5c0.3,0.1,0.5,0.1,0.8,0L63.6,70.6L63.6,70.6z M61.2,73.3v-0.7l1-0.9l0.3,0.5L61.2,73.3L61.2,73.3z
	 M61.2,66.6L61.2,66.6c0.2,0.2,0.3,0.3,0.5,0.5l0.4-0.4c-0.3-0.4-0.6-0.6-0.9-0.7V66.6z M61.2,65.2v0.2V65.2L61.2,65.2L61.2,65.2z
	 M61.2,65.9v0.6c-0.1,0-0.1-0.1-0.2-0.1c-0.1,0-0.2,0-0.2,0s-0.1,0.1-0.2,0.2c-0.1,0.1-0.1,0.2-0.2,0.3c0,0.1,0,0.2,0,0.4
	c0,0.2,0.1,0.4,0.3,0.6c0.1,0.2,0.3,0.5,0.5,0.8v0.9c0,0,0-0.1-0.1-0.1c-0.5-0.7-1.1-1.7-1.2-2.2c-0.1-0.5,0-0.9,0.3-1.2
	C60.5,66,60.8,65.9,61.2,65.9C61.1,65.9,61.2,65.9,61.2,65.9L61.2,65.9z M61.2,72.6L61,72.8l-1.3-2.1l0.9-0.8l-0.3-0.5l-0.9,0.8
	L58.7,69v1l2.1,3.5l0.3-0.3v-0.6H61.2z M58.7,73.8v-1l1,1.6l-0.4,0.3L58.7,73.8L58.7,73.8z M58.7,68.4v-0.7l0.6-0.5l0.3,0.5
	L58.7,68.4z M58.7,67.7v0.7l-0.3,0.2l0.3,0.5v1l-1-1.6L58.7,67.7L58.7,67.7z M58.7,72.8l-1.8-3l0.8-0.6l-0.3-0.5l-2,1.5l0.3,0.5
	l0.8-0.6l2.2,3.7V72.8L58.7,72.8z M53,78.1v-0.7c0-0.1,0.1-0.2,0.1-0.3c0-0.2,0-0.4,0-0.7c0,0,0-0.1,0-0.2v-1.8
	c0,0.1,0.1,0.2,0.1,0.3c0.3,0.9,0.5,1.9,0.5,2.4C53.5,77.6,53.3,77.9,53,78.1L53,78.1z M53,73.3l1.6,4.1l0.5-0.2L54,74.3l1.2-0.6
	L55,73.2l-1.2,0.6l-0.6-1.5l1.4-0.7l-0.2-0.5L53,71.6V73.3z M53,71.6v1.7l-0.6-1.4L53,71.6L53,71.6z M53,74.5
	c-0.3-0.8-0.6-1.5-0.9-1.8C52,72.6,52,72.6,52,72.6v0.8c0.1,0.1,0.1,0.2,0.2,0.3c0.1,0.3,0.4,0.8,0.5,1.2c0.1,0.4,0.3,0.9,0.4,1.3
	v-1.7H53z M53,77.4v0.7c-0.1,0-0.1,0.1-0.1,0.1c-0.3,0.2-0.6,0.1-0.9-0.1v-0.8c0.1,0.1,0.1,0.2,0.2,0.2c0.1,0.1,0.2,0.2,0.3,0.2
	s0.2,0,0.3,0C52.8,77.6,52.8,77.5,53,77.4C52.9,77.4,52.9,77.4,53,77.4z M51.9,72.6v0.8c-0.1-0.1-0.1-0.2-0.2-0.2
	C51.6,73,51.5,73,51.4,73s-0.2,0-0.3,0.1c-0.1,0-0.2,0.1-0.2,0.2c-0.1,0.1-0.1,0.2-0.1,0.4c0,0.2,0,0.4,0,0.7
	c0.1,0.3,0.3,0.9,0.4,1.3c0.1,0.4,0.4,1.1,0.5,1.4c0.1,0.1,0.1,0.2,0.2,0.3V78c-0.1,0-0.1-0.1-0.2-0.1c-0.3-0.3-0.7-1.3-1-2.2
	c-0.3-0.9-0.5-1.8-0.5-2.3s0.3-0.8,0.7-1C51.3,72.3,51.6,72.4,51.9,72.6L51.9,72.6z M43.5,80.4V79V80.4L43.5,80.4L43.5,80.4z
	 M43.5,75.1l0.9-0.1l0.7,5.3l0.5-0.1l-0.7-5.3l1-0.2l-0.1-0.5l-2.2,0.3v0.6H43.5z M47.4,77l0.6,2.7l0.5-0.1l-0.6-2.7l0.4-3.4
	l-0.5,0.1l-0.3,2.6l-1-2.3L46,74.1L47.4,77z M42.3,76.3h-0.5c0-0.7-0.2-1-0.6-1.1c-0.5,0-0.7,0.4-0.7,1.1c0,0.4,0.1,0.6,0.4,0.8
	c0.1,0,0.2,0.1,0.3,0.2s0.2,0.1,0.3,0.2c0.6,0.3,0.9,0.8,0.9,1.5c-0.1,1.1-0.4,1.7-1.2,1.7c-0.5,0-0.9-0.3-1.1-0.9
	C40,79.5,40,79.2,40,78.7h0.4c-0.1,1,0.2,1.4,0.8,1.4c0.5,0,0.7-0.4,0.7-1c0-0.5-0.2-0.8-0.5-1c0,0-0.1,0-0.1-0.1
	c-0.1,0-0.1-0.1-0.2-0.1c-0.3-0.1-0.4-0.2-0.5-0.3c-0.3-0.2-0.5-0.6-0.4-1.3c0-1,0.4-1.6,1.1-1.6C41.9,74.7,42.3,75.3,42.3,76.3
	L42.3,76.3z M43.5,74.5v0.6h-0.1l-0.1-0.5L43.5,74.5L43.5,74.5z M43.5,79l-0.4-4.4l-0.5,0.1l0.5,5.9l0.4-0.1V79L43.5,79z M38.6,78.1
	v-1c0.1,0,0.3-0.1,0.4-0.2c0.1-0.2,0.2-0.5,0.2-0.8c0-0.2-0.1-0.5-0.2-0.6c-0.1-0.2-0.2-0.3-0.4-0.3v-0.6h0.1c0.2,0,0.3,0.1,0.5,0.2
	c0.1,0.1,0.3,0.2,0.3,0.4c0.1,0.1,0.1,0.3,0.2,0.5c0,0.2,0.1,0.3,0.1,0.5c0,0.6-0.1,0.5-0.1,0.6c-0.1,0.1-0.1,0.3-0.1,0.4
	c-0.1,0.1-0.1,0.3-0.2,0.4c-0.1,0.1-0.2,0.2-0.3,0.2l0.6,2.9h-0.5L38.6,78.1z M38.6,74.7v0.6l0,0h-0.5l-0.1,2h0.5h0.1v1l-0.1-0.4H38
	l-0.1,2.8h-0.5l0.3-5.9L38.6,74.7L38.6,74.7z M34.8,80.2v-1.4l0.5-4.4l1.9,0.3l-0.1,0.6L35.7,75l-0.2,1.9l1.1,0.2l-0.1,0.6l-1.1-0.2
	l-0.3,2.2l1.6,0.2l-0.1,0.6L34.8,80.2L34.8,80.2z M34.8,74.8l0.2-0.5l-0.2-0.1V74.8z M34.8,74.3v0.6L33.2,80l-0.5-0.1l-0.1-6.1
	l0.5,0.2v4.7l1.3-4.4L34.8,74.3L34.8,74.3z M34.8,78.8l-0.2,1.4h0.2V78.8L34.8,78.8z M31,79.4v-2.1l0.8-3.7l0.5,0.1L31,79.4L31,79.4
	L31,79.4z M31,75l0.4-1.6L31,73.3V75z M31,73.3V75l-1,4.1l-0.5-0.2v-5.5l-1.3,4.3V76l1-3.4l0.7,0.3l-0.1,4.5L31,73.3L31,73.3
	L31,73.3z M31,77.2l-0.4,2l0.4,0.1V77.2L31,77.2z M28.2,74.3l0.7-1.8l-0.4-0.2l-0.2,0.6v1.4H28.2z M28.2,72.9v1.4l-0.9,2.4
	c-0.1,0.2-0.2,0.4-0.3,0.5c-0.1,0.2-0.2,0.3-0.4,0.3c-0.1,0.1-0.3,0.1-0.4,0.1c-0.6-0.1-0.8-0.3-1-0.8c-0.1-0.2-0.1-0.3-0.1-0.5
	s0.1-0.4,0.1-0.6l1.6-4.2l0.5,0.2l-1.6,4.2c-0.1,0.2-0.1,0.4,0,0.7c0.1,0.2,0.2,0.4,0.3,0.4c0.1,0.1,0.3,0.1,0.5,0s0.3-0.3,0.4-0.5
	L28.2,72.9L28.2,72.9z M28.2,76l-0.7,2.2l0.5,0.2l0.2-0.7V76z"/>
<path class="st2" d="M12.1,50.9c0-0.1,0-0.3,0-0.4c0-0.1,0-0.1,0-0.2V50.9L12.1,50.9z M12.1,63.7v-0.6l1.1-0.6L12.4,61l-0.3,0.1
	v-0.5l2.7-1.3l0.2,0.5l-2.2,1l0.7,1.4l2.2-1.1l0.3,0.5L12.1,63.7L12.1,63.7z M12.1,59.2v-0.6l1.6-0.6l-0.3-0.7l0.5-0.2l0.9,2.1
	l-0.5,0.2l-0.4-0.8L12.1,59.2L12.1,59.2z M12.1,57.4l1.6-0.6l-0.2-0.5l-1.4,0.5L12.1,57.4L12.1,57.4z M12.1,55.3v-0.5l0.8-0.3L13,55
	L12.1,55.3L12.1,55.3z M12.1,54.2v-0.9c0-0.1,0-0.1,0-0.2c0,0,0,0,0-0.1v-0.7c0.2,0.1,0.4,0.4,0.5,0.7c0.1,0.5-0.1,0.8-0.4,1.1
	C12.2,54.1,12.1,54.1,12.1,54.2z M10.9,51.8c0.1,0,0.3,0,0.4-0.1c0.1-0.1,0.3-0.1,0.4-0.2c0.1-0.1,0.2-0.2,0.3-0.4
	c0-0.1,0.1-0.1,0.1-0.2v-0.5c0-0.2-0.1-0.3-0.1-0.4c-0.1-0.2-0.2-0.3-0.3-0.4c-0.1-0.1-0.3-0.2-0.4-0.2c-0.8-0.1-1.3,0.1-1.8,0.6
	v0.7c0.6-0.7,1.4-1.2,2-0.5c0.1,0.1,0.2,0.3,0.2,0.5c0,0.1,0,0.2-0.1,0.3s-0.1,0.2-0.2,0.2c-0.1,0-0.2,0.1-0.3,0.1s-0.2,0-0.2,0
	L10.9,51.8L10.9,51.8z M12.1,52.3V53c0-0.1-0.1-0.1-0.1-0.1c-0.1-0.1-0.2-0.2-0.3-0.2c-0.2-0.1-0.3-0.1-0.6-0.1
	c-0.4,0-1.1,0.1-1.7,0.3v-0.6c0.7-0.2,1.4-0.2,1.9-0.2C11.6,52.1,11.9,52.2,12.1,52.3L12.1,52.3z M12.1,53.3v0.9
	c-0.4,0.3-1.4,0.6-2.1,0.8c-0.2,0-0.3,0.1-0.5,0.1v-0.6c0.2,0,0.3-0.1,0.4-0.1c0.4-0.1,1.2-0.3,1.5-0.4c0.2-0.1,0.4-0.2,0.5-0.3
	C12,53.5,12,53.4,12.1,53.3L12.1,53.3L12.1,53.3z M12.1,54.7l-2.7,0.9v0.6l2.7-0.9V54.7L12.1,54.7z M12.1,56.8v0.6l-2.7,0.9v-0.6
	L12.1,56.8L12.1,56.8z M12.1,58.6v0.6l-2.7,1.1v-0.6L12.1,58.6L12.1,58.6z M12.1,60.6v0.5l-2.4,1.1l-0.3-0.5L12.1,60.6L12.1,60.6z
	 M12.1,63.1v0.6l-1.2,0.6l-0.3-0.5L12.1,63.1z M9.4,49.9c-0.5,0.5-1,1.1-1.5,1.7c-0.1,0.1-0.2,0.1-0.2,0.2c-0.1,0-0.2,0.1-0.3,0.1
	c-0.2,0-0.3,0-0.5-0.1c-0.1-0.1-0.2-0.2-0.2-0.4c0-0.3,0-0.5,0.2-0.6c0.1-0.1,0.4-0.2,0.8-0.3l-0.1-0.6c-0.1,0-0.3,0.1-0.4,0.1
	s-0.3,0.1-0.4,0.2c-0.2,0.1-0.3,0.2-0.4,0.4S6.2,51,6.2,51.3c0,0.2,0.1,0.4,0.2,0.5s0.2,0.3,0.3,0.3c0.1,0.1,0.3,0.1,0.4,0.2
	c0.1,0,0.2,0,0.3,0c0.2,0,0.3-0.1,0.4-0.1S8,52.1,8.1,52c0.3-0.2,0.7-0.9,1.3-1.5L9.4,49.9L9.4,49.9z M9.4,52.4V53
	c-0.6,0.1-1.1,0.3-1.4,0.5c-0.2,0.1-0.4,0.2-0.5,0.3S7.3,54,7.3,54.1s0,0.1,0,0.2c0,0.1,0,0.1,0.1,0.2c0.1,0.1,0.2,0.2,0.3,0.2
	c0.1,0.1,0.3,0.1,0.6,0.1c0.2,0,0.7-0.1,1.2-0.2v0.6c-0.7,0.1-1.6,0.2-1.9,0.1C7.2,55.2,7,55,6.9,54.5s0-0.7,0.4-1
	C7.6,52.9,8.5,52.6,9.4,52.4L9.4,52.4z M9.4,55.6v0.6l-0.7,0.3c-0.2,0.1-0.4,0.2-0.4,0.4c-0.1,0.2-0.1,0.4-0.1,0.5
	c0.1,0.2,0.2,0.3,0.3,0.4c0.2,0.1,0.4,0.1,0.6,0l0.3-0.1v0.6l-0.2,0.1c-0.2,0.1-0.4,0.1-0.5,0.1c-0.2,0-0.3-0.1-0.5-0.1
	C8.1,58.3,8,58.2,7.9,58c-0.1-0.1-0.2-0.3-0.2-0.4c-0.1-0.2-0.1-0.3-0.1-0.5s0-0.3,0.1-0.5s0.2-0.3,0.3-0.4c0.1-0.1,0.3-0.2,0.5-0.3
	L9.4,55.6L9.4,55.6z M9.4,59.6v0.6l-0.5,0.2l-0.2-0.5L9.4,59.6z"/>
<path class="st2" d="M23.3,74.7v-1.6l0.1,0.1l1-2.1l-1.1,1.1v-0.7l1.4-1.3l0.5,0.4L23.3,74.7L23.3,74.7z M23.3,70.1v-0.8l0.1-0.1
	l0.4,0.3L23.3,70.1z M23.3,69.3v0.8l-3,3v-1.6l1.5-2.6l-1.5,1.5v-0.8l1.5-1.5l0.6,0.5l-1.7,3.2L23.3,69.3L23.3,69.3z M23.3,71.5
	l-3,2.8v0.1l0.4,0.3l1.7-1.6l0.8,0.7l-0.9,1.9l0.5,0.3l0.6-1.2v-1.6l-0.5-0.4l0.5-0.5v-0.8H23.3z M20.3,68.5l1-0.9l-0.4-0.4
	l-0.6,0.5V68.5L20.3,68.5z M20.3,66.8L20.3,66.8L20.3,66.8L20.3,66.8z M20.3,66.8L20.3,66.8L19,68v-0.7l1-0.9L20.3,66.8L20.3,66.8z
	 M20.3,67.8L19,69v0.7l1.3-1.2V67.8L20.3,67.8z M20.3,69.6v0.8L19,71.7v-0.8L20.3,69.6L20.3,69.6z M20.3,71.6l-1.1,1.9l0.4,0.3
	l0.6-0.7v-1.5H20.3z M20.3,74.3L20.3,74.3L20.3,74.3L20.3,74.3L20.3,74.3z M19,65.6L19,65.6L19,65.6L19,65.6z M17.3,64.1
	c0.1,0,0.1,0.1,0.1,0.2c0.1,0.1,0.1,0.2,0.1,0.2c0,0.1,0,0.2,0,0.3c0,0.1-0.1,0.2-0.2,0.3v0.7c0.3-0.2,0.5-0.5,0.6-0.8
	s0.1-0.7-0.1-1c-0.1-0.3-0.3-0.4-0.5-0.5V64.1L17.3,64.1z M19,65.4L19,65.4l-1.6,1.4l0.9,1.1l0.7-0.7V68l-1.8,1.5v-0.7l0.6-0.5
	l-0.6-0.8v-1.3l1.4-1.2L19,65.4L19,65.4z M19,69l-1.8,1.6v0.7l1.8-1.6V69L19,69z M19,70.9v0.8l-0.9,0.9l-0.5-0.4L19,70.9z
	 M16.1,64.2c0.1,0,0.1-0.1,0.2-0.1c0.3-0.1,0.4-0.2,0.6-0.2s0.3,0,0.3,0.1l0.1,0.1v-0.7c-0.1-0.1-0.3-0.1-0.4-0.1
	c-0.2,0-0.5,0.1-0.8,0.2L16.1,64.2L16.1,64.2z M17.3,65C17.2,65.1,17.2,65.1,17.3,65c-0.2,0.2-0.3,0.3-0.5,0.4l0.2,0.5
	c0.1-0.1,0.2-0.1,0.2-0.2L17.3,65L17.3,65z M17.3,66.2v1.3L17,67.2l-0.9,0.7v-0.7L17.3,66.2L17.3,66.2z M17.3,68.9v0.7l-1.2,1.1V70
	L17.3,68.9L17.3,68.9z M17.3,70.6v0.7L17,71.6l-0.4-0.4L17.3,70.6z M14.7,66.9c-0.2,0.2-0.4,0.3-0.6,0.3c-0.2,0.1-0.3,0.1-0.4,0.1
	c-0.1,0-0.2,0-0.2-0.1c-0.1-0.1-0.1-0.1-0.2-0.2c-0.1-0.1-0.1-0.2-0.1-0.3c0-0.1,0-0.2,0.1-0.4c0.1-0.2,0.2-0.3,0.4-0.5
	c0.6-0.6,1.4-1.2,2.2-1.6v-0.6c-1.1,0.5-2.6,1.7-3,2.4c-0.2,0.4-0.2,0.9,0,1.3s0.4,0.5,0.8,0.6c0.3,0,0.7-0.1,1.2-0.5L14.7,66.9
	L14.7,66.9z M16.1,67.2v0.7l-1.5,1.2l-0.4-0.4L16.1,67.2L16.1,67.2z M16.1,69.9v0.7L16,70.7l-0.4-0.4L16.1,69.9z"/>
<path class="st2" d="M44.4,68.2l0.5,1.9l0.2-0.1l0.1,0.3H45l0.2,0.8l-0.3,0.1l-0.2-0.8l-0.5,0.1v-0.3l0.4-0.1l-0.3-1.4l-0.1,0.2
	v-0.4L44.4,68.2L44.4,68.2z M44.2,70.5l-0.5,0.1l-0.1-0.3l0.6-1.8v0.4l-0.4,1.4l0.4-0.1V70.5z"/>
<path class="st2" d="M35.5,68.9c0-0.2,0-0.3-0.1-0.3s-0.2,0-0.3,0v-0.1c0.3,0,0.6-0.1,0.9-0.2l-0.7,2.5c0,0.1,0,0.2,0.3,0.3v0.1
	l-1.1-0.3v-0.1c0.3,0.1,0.4,0.1,0.5,0L35.5,68.9z"/>
<path class="st2" d="M38.3,70.9c0.2-0.2,0.3-0.5,0.4-0.9c-0.1,0.1-0.2,0.1-0.3,0.2c0,0-0.1,0-0.1,0.1v-0.2l0,0
	c0.1,0,0.2-0.1,0.3-0.1s0.1-0.1,0.1-0.2s0-0.2,0-0.4c0-0.2,0-0.4-0.1-0.5c-0.1-0.2-0.2-0.2-0.3-0.3v-0.2c0,0,0,0,0.1,0
	c0.4,0,0.7,0.6,0.7,1.2v0.1c0,0.5-0.2,1.1-0.8,1.4C38.3,71.1,38.3,70.9,38.3,70.9z M37.7,71.4L37.7,71.4c0.2-0.2,0.4-0.3,0.6-0.4
	l0.1-0.1v0.3C38.1,71.3,37.9,71.4,37.7,71.4L37.7,71.4z M38.3,70.3c-0.1,0-0.1,0-0.2,0c-0.1,0-0.2-0.1-0.3-0.3
	c-0.2-0.3-0.2-0.9,0-1.2c0.1-0.3,0.3-0.3,0.5-0.3v0.2h-0.1c-0.2,0-0.3,0.2-0.3,0.6c0,0.3,0,0.9,0.4,0.8
	C38.3,70.1,38.3,70.3,38.3,70.3z"/>
<path class="st2" d="M40.8,69.1c0-0.2,0.1-0.3,0.1-0.4c0.6-0.8,1.7,0.4,0.7,1.1c1.3,0.6,0.1,2.2-0.7,1.6c-0.1-0.1-0.1-0.2-0.1-0.3
	c0.1-0.3,0.3-0.1,0.4,0.1c0.6,0,0.9-0.7,0.5-1.1c-0.1-0.1-0.3-0.2-0.5-0.2v-0.1c0.1,0,0.3-0.1,0.4-0.2c0.1-0.1,0.2-0.3,0.2-0.4
	c0-0.2-0.1-0.3-0.1-0.4c-0.1-0.1-0.2-0.1-0.3-0.1s-0.2,0-0.3,0.1S41,69,41,69.1H40.8z"/>
<path class="st3" d="M95.4,21.1c0.4-1.8,2.6-1.6,2.7,0.4c0,0.7-0.2,1.2-0.5,1.8c-0.6,1.3,0.3,1.6,1.3,0.4c1.9-0.9,2.3-2.5,4.1-4.1
	c0.6-0.5,1.2-0.8,1.8-0.5c0.6,0.4,1,0.9,1.1,1.4c-0.2,0.6-0.5,1-1,1.2c-1,0.1-2.5,0.5-3.5,1.6c-1.1,1.1-2.5,1.9-4.5,2.3
	c0,1.4-0.5,2.3-1.1,3.9c-0.4,1.2,0.6,1.2,1.5,0.1c0.5-1.4,1.1-1.9,1.8-1.6c0.9,0.8,1.2,0.8,1.9-0.7l0.6-1.7c0.4-1.1,1.9-0.9,1.9,0.2
	c-0.3,0.4-0.5,0.4-0.9,1c-0.7,1.1,0.1,1.7,1,0.5c0.4-0.5,0.9-0.8,1.3-1c0.6-0.3,1.4-0.4,1.7,0.2c0.1,1-0.8,1.2-1.9,1.5
	c-1.3,0.3-2.2,1.3-3.5,1.8c-0.8,0.8-1.6,1.8-2.2,3.1c-0.6,1.4-0.2,1.6,1.5,0.7c1.8-0.9,3.2-1.8,4.5-2c1.8-0.8,2.9,0.4,1.6,1.4
	c-1.2,0.7-2.3,0.8-3.5,0.9c-1.1,1.1-3.6,0.7-4.7,2.1l-0.2,2.9c-0.2,1.2,0.1,1.6,1.2,1c0.9-0.5,2.2-0.2,2.1,0.8
	c0,0.8-0.5,1.3-1.5,1.4h-1.4c-0.3,2.1-0.3,4,0.2,6.3c0.3,1.1,0.6,2.3,0.1,3s-1.7,0.8-2.3-0.1L95.4,50c-0.5-0.6,0-1.1,1.1-1.6
	c0.5-1.4,0-3.2,0.2-4.9h-1.1c-0.5,0.3-0.7,0.9-1.2,1.6c-0.8,1.1-1.7,1.4-2.4,0.1l-0.4-0.9c-0.1-0.6,0-1,0.9-1.2
	c0.8-0.7,1.7-1.2,3-1.6c0.7-0.4,1-1,1.1-1.7v-1.6c0-1.8-0.4-2.1-1.7-1.2c-3.5,1-5.1,3.5-6.9,5.2c-0.5,0.5-1.2,0.9-2,1.1
	c-1.4,0.4-3.1-0.9-1.1-2c3.8-2.1,6.9-4.5,11-6c0.4-0.2,0.8-0.3,1-0.9l0.5-2.4c0.1-0.6-0.1-0.9-0.7-0.9c-0.8,0-1.1,0.5-1.9,1.6
	c-0.6,0.3-1.2,0.3-1.7,0.1c-0.2,0.6-0.5,1-0.9,1.3c-0.7,0.1-1.3,0-1.6-0.3c-0.3-0.5-0.1-0.9,0.4-1.3c0.8-0.6,1.7-0.9,2.5-1
	c0.4-0.3,0.5-0.7,0.5-1.3c0-0.5,0.3-1.9,0.9-2.6l-0.1-1.1c-0.4,0.1-0.7,0-1.1-0.1C92.9,26,93,25.2,93.9,25c0.7,0,1-0.3,0.9-0.9
	C94.8,22.9,94.8,21.9,95.4,21.1L95.4,21.1z M189.3,30.6c1.5,0.1,3.3,0,4.8-0.4c1.2-0.3,1.8-0.5,2.5,0.1c1.4,1.1,0.5,2.7-0.7,3.9
	c-1.5,1.5-2.6,2.7-3,3.7c-0.9,1.1-0.2,1.5,0.7,0.9c1.6-1,2,0.1,1.1,1.1c-1.4,0.6-2.7,1-4.1,1.1c-1.8,1-3.6,2.1-5.3,3.1
	c-1.4,0.6-2.3,0.5-2.7-0.3c-1.9-0.1-1.7-1.5,0.1-1.6c1.6-0.2,3.6-1.1,5.4-1.9c2.2-2.9,4-5.5,6.2-7.5c0.6-0.9,0.4-1.3-0.9-1
	c-0.9,0.4-1.7,0.8-2.6,1.2c-0.8,0.8-1.8,0.9-2.6,0C186.4,30.4,187.3,29.9,189.3,30.6L189.3,30.6z M243,22.4
	c-1.2-1.5,0.3-2.7,2.1-1.5c1.7,1.1,1.5,2.1,0.3,3c-0.9,0.9-1.8,2-2.8,2.8c-0.7,1,0.1,1.7,2.6,1.3c0.8-0.6,1.9-1.4,2.8-1.7
	c3.1-1.4,3.3,0.3,2.8,1.7c-0.8,0.7-1.6,1.4-1.7,2.2c-0.7,1-1.7,2.2-2.4,2.8c-1,1.3-0.1,1.6,0.7,1.6c1.1,0.8,0.1,1.6-1.5,2.6
	c-0.9,0.8-1.9,1.9-2.7,2.7c-1.4,1.2-0.5,1.8,0.4,1c0.7-0.7,1.3-0.5,1.9-0.8c2.1,0.3,1.6,1.3,0.8,2.2c-0.8,0.4-1.4,0.8-1.6,1.1
	c-0.5,0.6-1-0.2-0.2-0.7c0.3-0.6-0.2-0.9-1.2-0.3c-1.1,0.7-1,1.5-0.3,2.3c0.7,2.3,1,4.9,0.4,5.6c0.2,0.7-0.4,1.4-2.1,0.8
	c-4.4,0-3.1-1.2-1.6-1.1c1.3,0,2.1-0.6,2.1-2c0-0.8-0.1-1.5-0.1-2.3c-0.2-1.1-0.5-2-2.1-1.2c-1.1,0.3-2.4,1.2-4,2.2
	c-3.6,1.1-2.9-1.2-1-1.1c1.3-0.2,3-2.7,5.6-3.4c0.5-0.7-0.1-1.4,1.6-2c0.5-0.9,1.3-1.8,1.8-2.7c0.2-1.2-0.4-1.3-1.3-0.5
	c-1.1,0.8-2.3,1.4-3.5,1.8c-1.5,0.4-1.6-0.2-0.1-0.9c1.4-0.8,2.8-1.7,4.1-2.2c1.1-0.1,1.7-0.7,2-1.5c1-1.7,2.2-3.6,3.2-5.4
	c0.3-0.9-0.3-1.3-1.1-0.7c-0.6,0.4-1.3,0.9-1.9,0.9c-0.7,0.5-0.2,0.9,0.3,1.3c0.3,1.9-1.2,2.2-1.7,3.7c-0.5,0.5-0.8,0.7-0.8-0.1
	c0.2-0.8-0.3-1.1-1.2-0.3c-0.4,0.1-0.7,0.5-1,0.9c-0.5,0.9-1.3,0.3-0.7-0.3c1.4-0.9,0.3-2.1-0.8-0.9c-0.6,0.4-1.1,1.5-1.7,2.6
	c-0.9,1-1.6,0.2-1.6-1.2c-0.4-0.7-0.7-1-1.3-1.6c-0.6-1,0-1,0.9-0.9c0.6,0.3,1,0.6,1.3,1.1c0.8,0.8,1.3,0.1,0.7-1.2
	c-0.7-1.1-1.4-2.2-2.1-3.3c-0.9-1.3,0.2-1.5,1.3-0.6c0.6,0.8,1.2,0.9,1.7,0.1c0.2-0.2,0.4-0.3,0.7-0.3c1,0.1,1.8,0.1,2.1-0.8
	C241.9,25.8,243.6,23.7,243,22.4L243,22.4z M238,29.8c0.2,0.3,0.4,0.2,0.7,0.2c0.2-0.2,0.2-0.5,0.1-0.7
	C238.3,29.1,238,29.3,238,29.8L238,29.8z M240,30.1c0.2,0.6,0.8,0.7,1.6,0.1c0.2-0.5,0.1-0.7-0.4-0.7
	C240.8,29.5,240.4,29.7,240,30.1L240,30.1z M243.1,31c0,0.3-0.1,0.6-0.3,1.1c0.3,0.7,0.6,0.7,1.1,0c0.2-0.4,0.3-0.7,0.3-1.1
	C243.9,30.2,243.5,30.2,243.1,31L243.1,31z M238.7,31.3c0,0.2-0.1,0.5-0.1,0.7c0.1,0.4,0.5,0.2,0.9-0.1c0.1-0.3,0.2-0.6,0-0.8
	C239.3,30.9,239,30.9,238.7,31.3L238.7,31.3z M215.6,28c-0.7-3.3,1.3-3.1,2.6-1.4c1.6,0.7,0.3,1.6,0.4,2.6c0,0.5-0.1,1-0.4,1.3
	c-0.5,1.2,0.1,1.1,0.8,0.6s1.2-0.3,1.5,0.1c0.7,1-1,1.6-1.7,1.6c-0.8,0-1.3,0.8-1.2,1.5c-1.4,3.5-4,7-7.6,9.5
	c-1,0.7-1.7,1.5-2.8,2.3c-1.4,1.1-2.4,0.5-0.8-0.6c3.2-2.5,5.9-5.4,8.1-8.8c0.5-1.1,0.4-1.5-0.7-0.8c-0.7,0.8-1.5,1.2-2.3,1.3
	c-2.1,0.3-2.2-2.2-0.3-1.7c1.1-0.4,2-0.9,2.7-1.3c1.2-0.4,1.7-1.3,1.5-2.5C215.7,30.4,215.7,29.3,215.6,28L215.6,28z M217.1,38.5
	c0.5,1.4,1.3,2.4,2,3.4c0.5,0.7,1.3,1,1.9,1.4c0.8-0.5,1.4-0.1,2.2-0.1c0.9,0.1,1.7-0.4,0.3-1.1c-1.7-0.6-3.1-1.9-4.4-4
	C218,36.7,217,36.5,217.1,38.5L217.1,38.5z M153.3,30.9c1-0.9,1.9-1.7,3-2.1c0.6-0.6,1.2-0.4,1.6,0.1c0.8,0.6,0.3,1.4,0,2.1
	c-0.4,0.7-0.6,1.4-0.4,2.1c-0.5,1.3-0.6,2.6-0.6,4c-0.1,1.5,0.1,1.5,0.6,0.1c0.2-0.2,0.4-0.5,0.5-0.6c0.6-0.4,0.7,0,0.4,0.8
	c-0.2,0.8-0.5,1.5-0.9,2c-0.5,2.9-1.4,4.3-2.6,5.4c-1.5,0.7-2.1,0.4-1.8-0.9c0.2-1.4,0.8-2.7,1.6-2.9c-0.2-0.4-0.2-0.8-0.1-1.3
	c-0.3-0.4-0.9-0.3-1.3,0.1c-1.5,0.2-1.7-0.3-1.3-1c0.6-0.6,1.2-0.8,1.8-1s1-0.6,1-1.3c0-1.1,0.2-2.2,0.4-3.4c-0.1-1-0.5-1.2-1-0.5
	c-0.4,0.2-1.2,0.4-1.5,0.2C151.7,32.2,152.1,31.3,153.3,30.9L153.3,30.9z M161,29.8c0.8,0.3,1.1-0.4,1.8-1.3
	c1.2-1.7,2.2-2.2,3.1-2.1c0.2-0.5,0.8-0.9,1.4-1c0.8-1.3,1.5-1.3,1.9-0.5c1.4,1.2,0.9,2.3-0.2,3.5c-0.6,2.2-1.7,4.5-2.6,6.7
	c-0.5,0.2-0.8,0.5-1.3,0.7c-0.6,0.5-0.8,1.1-0.9,2c-0.4,1.5-0.3,2.1,1,1.7c2-0.7,2.3,0.9,0.7,2c-0.3,0.7-0.8,1.3-1.1,1.9
	c-0.7,1.2,0.1,1.3,1.3,0.7c1.6-0.4,2.8,0,2.8,1.1c0,1.4-0.8,1.6-1.5,1.1c-0.3,0.1-0.8-0.2-1.1,0c-1,0.8-2.4,0.6-3.3,0.1
	c-1-0.4-1.1-1-0.4-1.6c0.6-0.8,1.1-1.9,0.3-2.9c-0.7-0.5-0.3-1.1,0-1.6c0.2-0.4-0.2-1.4-0.1-2.1c-0.9-0.9-0.9-1.5-0.2-1.9
	c0-0.4,0.1-1,0.6-1.8c-0.8-0.7-1.1-1.2,0.1-1.7c0.4-0.7,0.7-1.4,0.9-2.2c0.2-1.1,0.6-1,0.9-0.2c0,0.5,0,0.9,0,1.4
	c-0.1,1.1,0.3,1.1,0.8-0.2c0.6-1.3,1.1-2.7,1.8-4.1c0-0.5-0.2-0.7-0.9-0.1c-1.1,1-1.7,1.2-2.9,1.6c-1.3,0.6-1.4,1.7-2.1,1.7
	c-0.5,0.9-0.2,2,0,3.1c0,1.9-1.7,2.1-1.9,0.7c0-0.7,0-1.2,0-1.9C159.5,30.5,159.4,29.1,161,29.8L161,29.8z M127.3,29.1
	c0.8-0.2,1.2-0.7,1.3-1.6c0.1-0.6,0.3-1.3,0.8-2l-0.1-1.6l0.4-0.8c0.4-0.3,0.6-0.2,1,0c0.9,0.8,1.8,1.9,2.2,2.9h2c0.7,0.8,0,2-1,2.9
	c-0.8,0.1-1.8,0.3-2.3,1.1c-0.8,1.2-1.7,2.3-2.8,3.2c0.1,0.5-0.2,0.6-0.8,1.4c-0.1,0.8,0.4,0.7,1.2,0.3c1-0.8,2.6-2.2,3.7-2.8
	c1.7-0.8,2.3-1.5,3.8-2.6c1.7-1,2.8-0.9,3.2,0.3c-0.5,0.8-0.8,1.7-0.8,2.7c-0.7,3.4-1.2,6.5-1.1,8.8c-0.4,1.4-0.7,2.7-0.5,4
	c0.2,1.1,0.2,1.5,0,2.4c-0.6,1.3-1.5,1.2-2.1,0.1l-3.2-2.9c-0.5-1.3,0.2-1,1-0.4l1.3,0.8c0.6,0.7,1.1,0.5,1.2-0.4
	c0.2-4.1,0.5-8.3,1.9-12.7l0.2-1c0.2-1-0.2-1.1-1.1-0.7l-1.4,1c-0.6,0.4-0.9,0.9-0.5,1.3c0.6,1,0.7,1.5-0.3,1.8
	c-1.5,0.7-3.2,0.7-4.2,2.3c-0.6,1-1.1,1.3-1.7,0.6c-0.4-0.5-0.9-0.6-1.3,0.2c-0.9,0.7-2.1,1.3-2.9,0.9c-1.1-0.2-0.6-1.2,0.7-1.2
	c0.7-0.1,1.3-0.5,1.8-1.2c0-1.1,0.2-2,0.8-3.2c0.5-1.2-0.8-1.4-1.7-0.4c-1.1,0.2-2.2,0.8-2.7,1.7c-0.7,0.6-1.3,0.6-1.7,0.1l-1.1-0.9
	c-0.8-1-0.1-1.6,1.1-1.6L127.3,29.1L127.3,29.1z M122.5,40.4c0.1,1.1,0.1,2.1-0.2,3.2c-0.6,1.2-0.5,2.4,0.3,3.2
	c0.4,0.8,1.2,0.8,2-0.1c0.7-1.2,0.7-2.6,0.2-3.5c0-1-0.2-1.9-0.4-2.9C123.8,38.4,122.4,38.8,122.5,40.4L122.5,40.4z M129,38.5
	c-0.6-0.2-1,0.2-0.9,0.9c0.6,0.2,1,0.5,1.3,0.5c1,0.3,1.7-0.3,2.4-0.3c0.7-0.7,0.7-1.3-0.3-1.5C130.6,38.1,129.8,38.2,129,38.5
	L129,38.5z M128.6,42.1c-0.1,0.6-0.6,0.7-1.3,0.8c-0.5,0.2-0.6,1,0.4,0.9c0.6-0.1,1.2,0.2,1.2,0.9c0,0.4-0.1,0.9-0.1,1.4
	s0.2,0.9,0.5,1.2c0.4,0.5,0.8,0.4,1.2,0c0.4-0.3,0.5-0.8,0.6-1.4c-0.1-0.7,0-1.5,0-2.2c0.1-0.7,0.2-1.3,0.9-1.5c0.4,0,0.7-0.3,1-0.8
	c-0.1-1-0.7-1-1.7-0.4c-0.6,0.4-1.1,0.7-1.5,0.2C129,40.6,128.5,40.9,128.6,42.1z"/>
<text transform="matrix(1 0 0 1 122.1582 75.79)" class="st4 st5">广州学院</text>
<text transform="matrix(1 0 0 1 122.1582 75.79)" class="st6 st4 st5">广州学院</text>
<text transform="matrix(1 0 0 1 271.8569 44.29)" class="st7 st8 st9">创新创业教育学院</text>
<text transform="matrix(1 0 0 1 271.8569 44.29)" class="st10 st8 st9">创新创业教育学院</text>
<rect x="273" y="56.8" class="st11" width="265.7" height="42.2"/>
<text transform="matrix(1 0 0 1 343.168 76.7305)" class="st7 st8 st12">School of IEE</text>
<text transform="matrix(1 0 0 1 343.168 76.7305)" class="st10 st8 st12">School of IEE</text>
</svg>
