<?xml version="1.0" standalone="no"?><!DOCTYPE svg PUBLIC "-//W3C//DTD SVG 1.1//EN"
        "http://www.w3.org/Graphics/SVG/1.1/DTD/svg11.dtd">
<svg t="1485748778724" class="icon" style="" viewBox="0 0 1024 1024" version="1.1" xmlns="http://www.w3.org/2000/svg"
     p-id="2479" xmlns:xlink="http://www.w3.org/1999/xlink" width="200" height="200">
    <defs>
        <style type="text/css"></style>
    </defs>
    <path d="M445.71648 828.67712H280.48896v165.22752a27.50976 27.50976 0 0 1-27.4944 27.53536h-27.5712a27.50464 27.50464 0 0 1-27.54048-27.48416v-165.27872H32.65536A27.53024 27.53024 0 0 1 5.12 801.14688v-27.54048a27.52 27.52 0 0 1 27.4944-27.53536h165.26848v-165.22752a27.51488 27.51488 0 0 1 27.49952-27.53024h27.5712a27.50976 27.50976 0 0 1 27.53536 27.49952v165.25824h165.22752a27.52 27.52 0 0 1 27.53536 27.4944v27.58144a27.53024 27.53024 0 0 1-27.53536 27.53024zM1024 777.9584c0 13.71648-0.79872 27.2384-2.18112 40.63744h-66.90816c0.13824-3.6864 0.62976-7.22944 0.62976-10.97216 0-164.52608-127.45216-283.84256-279.95136-321.55136 0.02048-1.72032 0.24064-3.38432 0.24064-5.10464 0-9.68704-0.89088-19.1488-1.96096-28.55936 14.73024-2.82112 41.63072-11.83744 48.64-14.79168 68.92032-28.66176 117.42208-96.56832 117.42208-175.8208 0-97.5104-73.4208-177.75616-168.00256-188.93824-4.33152-4.62848-8.98048-8.92928-13.60896-13.25568a165.51424 165.51424 0 0 0-17.8176-56.26368c3.84-0.18432 7.57248-0.77824 11.44832-0.77824 142.65856 0 258.29888 115.33824 258.29888 257.62304 0 83.74272-40.21248 157.91104-102.25152 204.96896C932.33152 520.448 1024 632.64256 1024 777.9584z"
          fill="#FF943E" p-id="2480"></path>
    <path d="M840.75008 819.15392h-68.57216c-12.57984-164.16768-149.57056-295.11168-317.02528-295.11168-46.57664 0-90.624 10.43968-130.45248 28.58496l-55.26016-51.8144a384.17408 384.17408 0 0 1 51.01568-23.36768c-69.19168-46.60736-114.69312-125.55776-114.69312-215.08096C205.76256 119.11168 322.176 2.99008 465.78176 2.99008c143.60064 0 260.01408 116.11648 260.01408 259.37408 0 92.31872-48.50176 173.15328-121.35936 219.11552 134.912 55.39328 229.24288 184.85248 236.3136 337.67424zM659.79904 263.14752c0-106.5472-86.4512-192.896-193.08032-192.896-106.62912 0-193.05984 86.3488-193.05984 192.896 0 96.43008 70.89152 176.08192 163.36896 190.42304 7.5264 0.94208 21.02784 4.74624 54.64064 0.69632 94.8224-12.2368 168.13056-93.04576 168.13056-191.11936z"
          fill="#FF943E" p-id="2481"></path>
</svg>