<?xml version="1.0" standalone="no"?><!DOCTYPE svg PUBLIC "-//W3C//DTD SVG 1.1//EN"
        "http://www.w3.org/Graphics/SVG/1.1/DTD/svg11.dtd">
<svg t="1485705380209" class="icon" style="" viewBox="0 0 1024 1024" version="1.1" xmlns="http://www.w3.org/2000/svg"
     p-id="2493" xmlns:xlink="http://www.w3.org/1999/xlink" width="200" height="200">
    <defs>
        <style type="text/css"></style>
    </defs>
    <path d="M512 102.4C276.360533 102.4 85.333333 260.488533 85.333333 455.492267c0 129.536 84.548267 242.466133 210.193067 303.906133-18.176 76.458667-57.531733 144.3328-111.957333 196.130133 118.869333-14.865067 221.474133-70.331733 286.941867-148.667733 13.653333 1.092267 27.477333 1.7408 41.489067 1.7408 235.639467 0 426.666667-158.088533 426.666667-353.092267S747.639467 102.4 512 102.4zM292.608 516.949333c-33.809067 0-61.218133-27.272533-61.218133-60.910933 0-33.6384 27.409067-60.893867 61.218133-60.893867s61.201067 27.272533 61.201067 60.893867C353.809067 489.6768 326.417067 516.949333 292.608 516.949333zM512 516.949333c-33.792 0-61.218133-27.272533-61.218133-60.910933 0-33.6384 27.409067-60.893867 61.218133-60.893867s61.218133 27.272533 61.218133 60.893867C573.218133 489.6768 545.792 516.949333 512 516.949333zM731.392 516.949333c-33.809067 0-61.218133-27.272533-61.218133-60.910933 0-33.6384 27.392-60.893867 61.218133-60.893867 33.792 0 61.201067 27.272533 61.201067 60.893867C792.593067 489.6768 765.201067 516.949333 731.392 516.949333z"
          p-id="2494" fill="#ff6600"></path>
</svg>