<?xml version="1.0" standalone="no"?><!DOCTYPE svg PUBLIC "-//W3C//DTD SVG 1.1//EN"
        "http://www.w3.org/Graphics/SVG/1.1/DTD/svg11.dtd">
<svg t="1485761657249" class="icon" style="" viewBox="0 0 1024 1024" version="1.1" xmlns="http://www.w3.org/2000/svg"
     p-id="2513" xmlns:xlink="http://www.w3.org/1999/xlink" width="200" height="200">
    <defs>
        <style type="text/css"></style>
    </defs>
    <path d="M864.8 348.8l0 0.8 0 20 0 0 0 496c0 54.4-44.8 99.2-99.2 99.2L250.4 964.8c-54.4 0-99.2-44.8-99.2-99.2L151.2 151.2c0-54.4 44.8-99.2 99.2-99.2l297.6 0L568 52l18.4 0 0.8 0 17.6 0c0.8 0 1.6 0 1.6 0 0 0 0 0 0 0l252.8 292L864.8 348.8M269.6 111.2c-32.8 0-59.2 26.4-59.2 59.2l0 674.4c0 32.8 26.4 59.2 59.2 59.2l476 0c32.8 0 59.2-26.4 59.2-59.2L804.8 368.8 666.4 368.8c-20.8 0-46.4-4.8-59.2-20-12-14.4-20-38.4-20-59.2L587.2 111.2l-1.6 0 0 0L269.6 111.2zM627.2 151.2l0 139.2c0 10.4-0.8 12.8 0 20 3.2 15.2 10.4 20 20 20l139.2 0L627.2 151.2zM701.6 612c0 16-3.2 30.4-9.6 44.8l77.6 131.2c5.6 10.4 2.4 24-8 28-4.8 2.4-10.4 3.2-16 2.4l-60-16-16 60c-3.2 10.4-15.2 16.8-26.4 14.4-5.6-2.4-11.2-5.6-13.6-11.2L580.8 784l-49.6 83.2c-5.6 10.4-18.4 13.6-28.8 8-5.6-2.4-9.6-8-10.4-12.8l-16-60-60 16c-11.2 3.2-23.2-3.2-26.4-14.4-0.8-6.4 0-12.8 3.2-16.8L468.8 656c-7.2-14.4-9.6-29.6-9.6-44.8 0-32.8 13.6-62.4 36-83.2 21.6-21.6 52-35.2 85.6-35.2s63.2 13.6 85.6 35.2C688 548.8 701.6 578.4 701.6 612zM600.8 729.6l41.6 71.2 8-30.4c3.2-10.4 15.2-16.8 26.4-14.4l31.2 8.8-41.6-70.4c-18.4 18.4-41.6 28-65.6 32.8l-0.8 0L600.8 729.6zM494.4 695.2l-40 68.8 31.2-8c11.2-3.2 24 3.2 26.4 14.4l9.6 30.4 41.6-71.2-0.8-0.8C536 724.8 512.8 714.4 494.4 695.2zM636 556.8c-13.6-13.6-33.6-22.4-55.2-22.4-21.6 0-41.6 8.8-55.2 22.4-13.6 13.6-23.2 33.6-23.2 54.4 0 16 4.8 29.6 12.8 41.6l0.8 0.8c25.6 41.6 86.4 44.8 120 11.2l0.8-0.8c13.6-13.6 21.6-32.8 21.6-52.8C659.2 590.4 649.6 570.4 636 556.8zM528 309.6 269.6 309.6c-11.2 0-20-8.8-20-20 0-11.2 8.8-20 20-20L528 269.6c11.2 0 20 8.8 20 20C548 300.8 538.4 309.6 528 309.6zM269.6 428.8l198.4 0c11.2 0 20 8.8 20 20 0 11.2-8.8 20-20 20L269.6 468.8c-11.2 0-20-8.8-20-20C250.4 437.6 259.2 428.8 269.6 428.8zM269.6 587.2l99.2 0c11.2 0 20 8.8 20 20 0 11.2-8.8 20-20 20L269.6 627.2c-11.2 0-20-8.8-20-20C250.4 596 259.2 587.2 269.6 587.2zM607.2 51.2"
          p-id="2514" fill="#ff6600"></path>
</svg>